<svg width="36" height="39" viewBox="0 0 36 39" fill="none" xmlns="http://www.w3.org/2000/svg">
<circle cx="18.1923" cy="15.577" r="9.29486" fill="#9D27B0"/>
<path d="M17.2974 10.5854C17.6242 9.80488 18.7605 9.80488 19.0873 10.5854L19.8994 12.5249C20.038 12.8559 20.3577 13.0819 20.7242 13.1078L22.8716 13.2597C23.7358 13.3208 24.0869 14.3719 23.4247 14.9154L21.7792 16.266C21.4984 16.4965 21.3763 16.862 21.4642 17.2091L21.9792 19.2425C22.1865 20.0608 21.2673 20.7104 20.5312 20.2658L18.7021 19.161C18.3899 18.9724 17.9948 18.9724 17.6826 19.161L15.8535 20.2658C15.1174 20.7104 14.1982 20.0608 14.4054 19.2425L14.9205 17.2091C15.0084 16.862 14.8863 16.4965 14.6055 16.266L12.9599 14.9154C12.2978 14.3719 12.6489 13.3208 13.513 13.2597L15.6605 13.1078C16.027 13.0819 16.3467 12.8559 16.4853 12.5249L17.2974 10.5854Z" fill="#FFDC00"/>
<path d="M18.1923 1.0769V4.05126M13.7308 1.82049V4.79485M22.6539 1.82049V4.79485" stroke="#6A1B9A" stroke-width="1.48718" stroke-linecap="round"/>
<path d="M27.8205 28.3546C28.0856 28.2633 28.3778 28.4021 28.4706 28.6644C28.5634 28.9249 28.4223 29.2119 28.1552 29.3031L19.7402 32.1926L28.1552 35.0839C28.4223 35.1752 28.5634 35.4603 28.4706 35.7227C28.3778 35.9831 28.0855 36.1219 27.8205 36.0306L18.1923 32.7249L8.56603 36.0307C8.299 36.1219 8.00869 35.9831 7.91586 35.7227C7.82296 35.4604 7.96227 35.1753 8.2293 35.084L16.6462 32.1926L8.2293 29.3032C7.96227 29.212 7.82296 28.9249 7.91586 28.6645C8.00869 28.4021 8.299 28.2634 8.56603 28.3547L18.1923 31.6622L27.8205 28.3546Z" fill="#B570F7" fill-opacity="0.3"/>
<path fill-rule="evenodd" clip-rule="evenodd" d="M5.08704 17.6577H8.53508V38.6654C8.53508 38.8497 8.38218 39 8.19453 39H5.42765C5.24 39 5.0871 38.8497 5.0871 38.6654C5.08704 31.7743 5.08704 24.5487 5.08704 17.6577ZM31.2995 38.6654C31.2995 38.8497 31.1447 39 30.957 39H28.192C28.0044 39 27.8495 38.8497 27.8495 38.6654C27.8495 31.7744 27.8495 24.5488 27.8495 17.6577H31.2994C31.2995 24.5487 31.2995 31.7743 31.2995 38.6654Z" fill="#DDEAFB"/>
<path fill-rule="evenodd" clip-rule="evenodd" d="M6.48791 17.9923H8.53507V38.6654C8.53507 38.8498 8.38217 39 8.19452 39H6.14539C6.3331 39 6.48784 38.8498 6.48784 38.6654C6.48791 31.7743 6.48791 24.8833 6.48791 17.9923ZM31.2995 38.6654C31.2995 38.8498 31.1447 39 30.957 39H28.9099C29.0976 39 29.2504 38.8498 29.2504 38.6654C29.2504 31.7744 29.2504 24.8834 29.2504 17.9923H31.2994C31.2995 24.8833 31.2995 31.7743 31.2995 38.6654Z" fill="#CBE2FF"/>
<path fill-rule="evenodd" clip-rule="evenodd" d="M1.67379 11.4872H34.7107C35.2371 11.4872 35.6666 11.9092 35.6666 12.4263V17.0533C35.6666 17.5703 35.2371 17.9923 34.7107 17.9923H30.8893L29.115 17.8327L27.8496 17.9923H7.58503L4.60524 17.8422L1.67386 17.9923C1.14751 17.9923 0.717957 17.5703 0.717957 17.0533V12.4263C0.717957 11.9092 1.14751 11.4872 1.67379 11.4872Z" fill="#B570F7" fill-opacity="0.3"/>
<path fill-rule="evenodd" clip-rule="evenodd" d="M32.6636 11.4872H34.7108C35.2371 11.4872 35.6667 11.9092 35.6667 12.4263V17.0533C35.6667 17.5703 35.2371 17.9923 34.7108 17.9923H32.6636C33.1901 17.9923 33.6196 17.5703 33.6196 17.0533V12.4263C33.6196 11.9092 33.1901 11.4872 32.6636 11.4872Z" fill="#B570F7" fill-opacity="0.3"/>
<path fill-rule="evenodd" clip-rule="evenodd" d="M1.67379 20.3723H34.7107C35.2371 20.3723 35.6666 20.7962 35.6666 21.3114V25.9383C35.6666 26.4554 35.2371 26.8774 34.7107 26.8774H30.8893L29.1537 26.3926L27.8631 26.8774H7.58503L4.97289 26.577L1.67386 26.8774C1.14751 26.8775 0.717957 26.4554 0.717957 25.9384V21.3114C0.717957 20.7963 1.14751 20.3723 1.67379 20.3723Z" fill="#B570F7" fill-opacity="0.3"/>
<path fill-rule="evenodd" clip-rule="evenodd" d="M32.6636 20.3723H34.7108C35.2371 20.3723 35.6667 20.7962 35.6667 21.3114V25.9383C35.6667 26.4554 35.2371 26.8774 34.7108 26.8774H32.6636C33.1901 26.8774 33.6196 26.4554 33.6196 25.9383V21.3114C33.6196 20.7963 33.1901 20.3723 32.6636 20.3723Z" fill="#B570F7" fill-opacity="0.3"/>
<path fill-rule="evenodd" clip-rule="evenodd" d="M34.7107 11.4872H28.7995L24.978 17.9923H30.8893L34.7107 11.4872ZM11.4084 11.4872H5.49723L1.67377 17.9923H7.58494L11.4084 11.4872ZM23.0605 11.4872H17.1474L13.3259 17.9923H19.2371L23.0605 11.4872Z" fill="#F4F7FA"/>
<path fill-rule="evenodd" clip-rule="evenodd" d="M34.7107 20.3723H28.7995L24.978 26.8775H30.8893L34.7107 20.3723ZM11.4084 20.3723H5.49723L1.67377 26.8775H7.58494L11.4084 20.3723ZM23.0605 20.3723H17.1474L13.3259 26.8775H19.2371L23.0605 20.3723Z" fill="#F4F7FA"/>
</svg>
