<svg width="29" height="39" viewBox="0 0 29 39" fill="none" xmlns="http://www.w3.org/2000/svg">
    <g clip-path="url(#clip0)">
        <path
            d="M20.5639 2.49422H17.9199C17.4183 1.07725 16.0647 0.0595703 14.4773 0.0595703C12.8899 0.0595703 11.5362 1.07725 11.0323 2.49422H8.39066C7.7187 2.49422 7.17334 3.03958 7.17334 3.71154V8.58084C7.17334 9.2528 7.7187 9.79816 8.39066 9.79816H20.5639C21.2359 9.79816 21.7812 9.2528 21.7812 8.58084V3.71154C21.7812 3.03958 21.2359 2.49422 20.5639 2.49422Z"
            fill="#F4F7FA" />
        <path
            d="M26.4327 4.92896H23.9981V8.58093C23.9981 10.5944 22.3596 12.2329 20.3461 12.2329H8.17288C6.15943 12.2329 4.52091 10.5944 4.52091 8.58093V4.92896H2.08626C0.744768 4.92896 -0.348389 6.02211 -0.348389 7.3636V36.5794C-0.348389 37.9452 0.720422 39.014 2.08626 39.014H26.4327C27.7986 39.014 28.8674 37.9452 28.8674 36.5794V7.3636C28.8674 5.99777 27.7986 4.92896 26.4327 4.92896Z"
            fill="#F4F7FA" />
        <circle cx="14.2545" cy="27.1226" r="7.44715" fill="#9D27B0" />
        <path
            d="M13.5375 23.1233C13.7994 22.498 14.7097 22.498 14.9716 23.1233L15.6223 24.6773C15.7333 24.9425 15.9895 25.1235 16.2831 25.1443L18.0037 25.266C18.696 25.315 18.9773 26.1571 18.4468 26.5926L17.1284 27.6747C16.9034 27.8594 16.8055 28.1522 16.876 28.4303L17.2887 30.0595C17.4547 30.7151 16.7182 31.2356 16.1285 30.8794L14.663 29.9942C14.4129 29.8431 14.0963 29.8431 13.8461 29.9942L12.3806 30.8794C11.7909 31.2356 11.0544 30.7151 11.2204 30.0595L11.6331 28.4303C11.7036 28.1522 11.6057 27.8594 11.3807 27.6747L10.0623 26.5926C9.53175 26.1571 9.81307 25.315 10.5054 25.266L12.226 25.1443C12.5197 25.1235 12.7758 24.9425 12.8868 24.6773L13.5375 23.1233Z"
            fill="#FFDC00" />
        <path d="M14.2545 15.505V17.8881M10.6799 16.1008V18.4839M17.8291 16.1008V18.4839"
            stroke="#6A1B9A" stroke-width="1.19155" stroke-linecap="round" />
    </g>
    <defs>
        <clipPath id="clip0">
            <rect width="29" height="39" fill="white" />
        </clipPath>
    </defs>
</svg>
