<svg width="31" height="25" viewBox="0 0 31 25" fill="none" xmlns="http://www.w3.org/2000/svg">
<path d="M1.47913 3.55545V21.4443C1.47913 22.0374 1.71472 22.6062 2.13407 23.0255C2.55342 23.4449 3.12218 23.6804 3.71524 23.6804H26.0763C26.3729 23.6804 26.6573 23.5627 26.8669 23.353C27.0766 23.1433 27.1944 22.8589 27.1944 22.5624V6.90961C27.1944 6.61309 27.0766 6.32871 26.8669 6.11903C26.6573 5.90935 26.3729 5.79156 26.0763 5.79156H3.71524C3.12218 5.79156 2.55342 5.55597 2.13407 5.13662C1.71472 4.71726 1.47913 4.1485 1.47913 3.55545C1.47913 2.96239 1.71472 2.39363 2.13407 1.97428C2.55342 1.55493 3.12218 1.31934 3.71524 1.31934H22.7222" fill="#B570F7"/>
<path d="M1.47913 3.55545V21.4443C1.47913 22.0374 1.71472 22.6062 2.13407 23.0255C2.55342 23.4449 3.12218 23.6804 3.71524 23.6804H26.0763C26.3729 23.6804 26.6573 23.5627 26.8669 23.353C27.0766 23.1433 27.1944 22.8589 27.1944 22.5624V6.90961C27.1944 6.61309 27.0766 6.32871 26.8669 6.11903C26.6573 5.90935 26.3729 5.79156 26.0763 5.79156H3.71524C3.12218 5.79156 2.55342 5.55597 2.13407 5.13662C1.71472 4.71726 1.47913 4.1485 1.47913 3.55545ZM1.47913 3.55545C1.47913 2.96239 1.71472 2.39363 2.13407 1.97428C2.55342 1.55493 3.12218 1.31934 3.71524 1.31934H22.7222" stroke="#B570F7" stroke-width="2.55556" stroke-linecap="round" stroke-linejoin="round"/>
<path d="M21.0451 16.4132C21.9714 16.4132 22.7222 15.6624 22.7222 14.7362C22.7222 13.8099 21.9714 13.0591 21.0451 13.0591C20.1189 13.0591 19.368 13.8099 19.368 14.7362C19.368 15.6624 20.1189 16.4132 21.0451 16.4132Z" fill="white"/>
</svg>
