<svg width="24" height="20" viewBox="0 0 24 20" fill="none" xmlns="http://www.w3.org/2000/svg">
    <path
        d="M1.375 3V17C1.375 17.4641 1.55937 17.9092 1.88756 18.2374C2.21575 18.5656 2.66087 18.75 3.125 18.75H20.625C20.8571 18.75 21.0796 18.6578 21.2437 18.4937C21.4078 18.3296 21.5 18.1071 21.5 17.875V5.625C21.5 5.39294 21.4078 5.17038 21.2437 5.00628C21.0796 4.84219 20.8571 4.75 20.625 4.75H3.125C2.66087 4.75 2.21575 4.56563 1.88756 4.23744C1.55937 3.90925 1.375 3.46413 1.375 3C1.375 2.53587 1.55937 2.09075 1.88756 1.76256C2.21575 1.43437 2.66087 1.25 3.125 1.25H18"
        fill="white" />
    <path
        d="M1.375 3V17C1.375 17.4641 1.55937 17.9092 1.88756 18.2374C2.21575 18.5656 2.66087 18.75 3.125 18.75H20.625C20.8571 18.75 21.0796 18.6578 21.2437 18.4937C21.4078 18.3296 21.5 18.1071 21.5 17.875V5.625C21.5 5.39294 21.4078 5.17038 21.2437 5.00628C21.0796 4.84219 20.8571 4.75 20.625 4.75H3.125C2.66087 4.75 2.21575 4.56563 1.88756 4.23744C1.55937 3.90925 1.375 3.46413 1.375 3ZM1.375 3C1.375 2.53587 1.55937 2.09075 1.88756 1.76256C2.21575 1.43437 2.66087 1.25 3.125 1.25H18"
        stroke="white" stroke-width="2" stroke-linecap="round" stroke-linejoin="round" />
    <path
        d="M16.6875 13.0625C17.4124 13.0625 18 12.4749 18 11.75C18 11.0251 17.4124 10.4375 16.6875 10.4375C15.9626 10.4375 15.375 11.0251 15.375 11.75C15.375 12.4749 15.9626 13.0625 16.6875 13.0625Z"
        fill="#B570F7" />
</svg>
