<svg width="32" height="44" viewBox="0 0 32 44" fill="none" xmlns="http://www.w3.org/2000/svg">
    <path d="M7.14879 29.9188L5.43848 30.0031L2.12569 39.5286C2.10128 39.5983 2.09489 39.673 2.10711 39.7459C2.11933 39.8187 2.14976 39.8873 2.19557 39.9452C2.24139 40.0031 2.3011 40.0485 2.36916 40.0772C2.43722 40.1058 2.51141 40.1168 2.58486 40.1091L7.23304 39.6221C7.29711 39.6155 7.36186 39.6229 7.42271 39.6441C7.48357 39.6652 7.53904 39.6994 7.58522 39.7443L10.9258 43.0116C10.9785 43.0633 11.0434 43.1008 11.1145 43.1206C11.1855 43.1405 11.2605 43.1421 11.3323 43.1253C11.4042 43.1085 11.4706 43.0738 11.5255 43.0245C11.5803 42.9752 11.6219 42.9128 11.6462 42.8431L14.9842 33.2544L14.0002 32.2989L7.14879 29.9188Z" fill="#FF4755"/>
    <path d="M14.9842 33.2542L15.6583 31.3164L6.11335 28.071L5.43933 30.0029C8.23373 31.9984 11.5528 33.129 14.9842 33.2542Z" fill="#FC2B3A"/>
    <path d="M24.1677 29.9188L25.878 30.0031L29.1933 39.5295C29.2178 39.5992 29.2241 39.6739 29.2119 39.7467C29.1997 39.8195 29.1693 39.8881 29.1235 39.946C29.0776 40.0039 29.0179 40.0493 28.9499 40.078C28.8818 40.1067 28.8076 40.1177 28.7342 40.11L24.0835 39.6221C24.0194 39.6155 23.9546 39.6229 23.8938 39.6441C23.8329 39.6652 23.7775 39.6994 23.7313 39.7443L20.3907 43.0116C20.338 43.0633 20.2731 43.1008 20.2021 43.1206C20.131 43.1405 20.0561 43.1421 19.9842 43.1253C19.9124 43.1085 19.8459 43.0738 19.791 43.0245C19.7362 42.9752 19.6947 42.9128 19.6703 42.8431L16.3323 33.2544L17.3155 32.2989L24.1677 29.9188Z" fill="#FF4755"/>
    <path d="M16.3323 33.2542L15.6583 31.3164L25.2032 28.071L25.8772 30.0029C23.0828 31.9984 19.7637 33.129 16.3323 33.2542Z" fill="#FC2B3A"/>
    <path d="M15.6578 30.3408C-0.000485918 30.3408 0.00625463 15.1308 0.0188924 14.8688C0.430042 6.58767 7.27468 0 15.6578 0C24.0408 0 30.8855 6.58767 31.2966 14.8696C31.3093 15.1308 31.316 30.3408 15.6578 30.3408Z" fill="#FFE27A"/>
    <path d="M15.6582 29.7408C7.27516 29.7408 0.430528 23.1523 0.0193776 14.8712C0.00702064 15.1335 0.00056168 15.3966 0 15.6606C0 24.3057 7.01061 31.3163 15.6582 31.3163C24.3059 31.3163 31.3165 24.3057 31.3165 15.6581C31.3165 15.3935 31.31 15.1304 31.2971 14.8687C30.886 23.1498 24.0413 29.7408 15.6582 29.7408Z" fill="#F9CF58"/>
    <path d="M15.6583 26.9715C3.34735 26.9715 3.33135 14.8653 3.34735 14.605C3.54794 11.4763 4.93224 8.54134 7.21893 6.39656C9.50562 4.25178 12.5231 3.05811 15.6583 3.05811C18.7934 3.05811 21.8109 4.25178 24.0976 6.39656C26.3843 8.54134 27.7686 11.4763 27.9692 14.605C27.9852 14.8653 27.9692 26.9715 15.6583 26.9715Z" fill="#FFBA57"/>
    <path d="M15.6582 26.4156C12.524 26.4154 9.50742 25.2222 7.22116 23.0784C4.9349 20.9345 3.55043 18.0008 3.34899 14.873C3.33214 15.1342 3.32288 15.3971 3.32288 15.6625C3.32288 18.934 4.62249 22.0716 6.93581 24.3849C9.24914 26.6982 12.3867 27.9978 15.6582 27.9978C18.9298 27.9978 22.0673 26.6982 24.3806 24.3849C26.6939 22.0716 27.9936 18.934 27.9936 15.6625C27.9936 15.3971 27.9843 15.1342 27.9674 14.873C27.766 18.0008 26.3815 20.9345 24.0953 23.0784C21.809 25.2222 18.7924 26.4154 15.6582 26.4156Z" fill="#FFAC3E"/>
    <path d="M18.7672 20.2462H13.4087C13.2627 20.2462 13.1504 20.2125 13.0717 20.1451C13.0043 20.0665 12.9706 19.9541 12.9706 19.8081V18.3421C12.9706 18.1961 13.0043 18.0894 13.0717 18.022C13.1504 17.9433 13.2627 17.904 13.4087 17.904H14.7736V13.8599H13.6446C13.4986 13.8599 13.3863 13.8262 13.3076 13.7588C13.2402 13.6802 13.2065 13.5678 13.2065 13.4218V11.9558C13.2065 11.8098 13.2402 11.7031 13.3076 11.6357C13.3863 11.557 13.4986 11.5177 13.6446 11.5177H17.1664C17.3124 11.5177 17.4191 11.557 17.4865 11.6357C17.5652 11.7031 17.6045 11.8098 17.6045 11.9558V17.904H18.7672C18.9132 17.904 19.0199 17.9433 19.0873 18.022C19.166 18.0894 19.2053 18.1961 19.2053 18.3421V19.8081C19.2053 19.9541 19.166 20.0665 19.0873 20.1451C19.0199 20.2125 18.9132 20.2462 18.7672 20.2462Z" fill="#F9CF58"/>
    <path d="M18.2271 19.6084H12.8686C12.7226 19.6084 12.6103 19.5747 12.5316 19.5073C12.4642 19.4287 12.4305 19.3163 12.4305 19.1703V17.7043C12.4305 17.5583 12.4642 17.4515 12.5316 17.3841C12.6103 17.3055 12.7226 17.2662 12.8686 17.2662H14.2335V13.2221H13.1045C12.9585 13.2221 12.8462 13.1884 12.7675 13.121C12.7001 13.0424 12.6664 12.93 12.6664 12.784V11.318C12.6664 11.172 12.7001 11.0652 12.7675 10.9978C12.8462 10.9192 12.9585 10.8799 13.1045 10.8799H16.6263C16.7723 10.8799 16.879 10.9192 16.9464 10.9978C17.0251 11.0652 17.0644 11.172 17.0644 11.318V17.2662H18.2271C18.3731 17.2662 18.4798 17.3055 18.5472 17.3841C18.6259 17.4515 18.6652 17.5583 18.6652 17.7043V19.1703C18.6652 19.3163 18.6259 19.4287 18.5472 19.5073C18.4798 19.5747 18.3731 19.6084 18.2271 19.6084Z" fill="#FFE27A"/>
</svg>
