<svg width="1240" height="400" viewBox="0 0 1240 400" fill="none"
    xmlns="http://www.w3.org/2000/svg">
    <path
        d="M0 73.4578C0 73.4578 226.943 0.0943604 621.17 0.0943604C1020.08 0.0943604 1240 73.4578 1240 73.4578V400.17H0V73.4578Z"
        fill="#F4F7FA" />
    <path
        d="M376.388 252.509V252.34C376.388 242.064 369.65 237.769 357.69 234.653C347.499 232.042 344.972 230.778 344.972 226.904V226.735C344.972 223.872 347.583 221.597 352.552 221.597C357.522 221.597 362.66 223.787 367.882 227.409L374.62 217.639C368.64 212.838 361.312 210.143 352.721 210.143C340.676 210.143 332.085 217.218 332.085 227.914V228.083C332.085 239.79 339.75 243.075 351.626 246.107C361.48 248.634 363.502 250.319 363.502 253.603V253.772C363.502 257.225 360.301 259.331 354.995 259.331C348.257 259.331 342.698 256.551 337.392 252.172L329.727 261.352C336.802 267.669 345.814 270.786 354.742 270.786C367.46 270.786 376.388 264.216 376.388 252.509ZM427.737 262.7L420.241 255.12C417.124 258.067 414.176 259.92 409.881 259.92C402.89 259.92 398.426 254.362 398.426 247.455V247.286C398.426 240.633 402.974 234.989 409.376 234.989C413.924 234.989 416.787 236.927 419.651 239.959L427.484 231.536C423.273 226.819 417.967 223.956 409.46 223.956C395.647 223.956 385.792 234.568 385.792 247.455V247.623C385.792 260.51 395.731 270.954 409.291 270.954C418.304 270.954 423.357 267.501 427.737 262.7ZM476.613 269.943V243.749C476.613 231.536 470.464 224.293 456.482 224.293C448.818 224.293 443.933 225.725 438.963 227.914L442.164 237.685C446.291 236.169 449.744 235.242 454.629 235.242C461.031 235.242 464.316 238.19 464.316 243.496V244.254C461.115 243.159 457.83 242.401 453.282 242.401C442.585 242.401 435.089 246.95 435.089 256.804V256.973C435.089 265.901 442.08 270.786 450.587 270.786C456.819 270.786 461.115 268.512 464.231 265.058V269.943H476.613ZM464.484 254.025C464.484 258.657 460.441 261.942 454.461 261.942C450.334 261.942 447.47 259.92 447.47 256.467V256.299C447.47 252.256 450.839 250.066 456.314 250.066C459.43 250.066 462.294 250.74 464.484 251.75V254.025ZM530.669 269.943V240.717C530.669 230.357 525.026 223.956 515.34 223.956C508.854 223.956 505.064 227.409 502.116 231.199V224.798H489.314V269.943H502.116V244.76C502.116 238.695 505.232 235.579 510.118 235.579C515.003 235.579 517.866 238.695 517.866 244.76V269.943H530.669ZM567.901 249.982V237.685H541.959V249.982H567.901ZM627.55 231.536V231.368C627.55 219.323 619.043 210.985 604.978 210.985H580.889V269.943H593.86V252.256H603.714C616.938 252.256 627.55 245.181 627.55 231.536ZM614.411 231.789C614.411 236.842 610.621 240.717 604.135 240.717H593.86V222.692H603.883C610.368 222.692 614.411 225.809 614.411 231.62V231.789ZM675.492 269.943V243.749C675.492 231.536 669.344 224.293 655.362 224.293C647.697 224.293 642.812 225.725 637.843 227.914L641.044 237.685C645.171 236.169 648.624 235.242 653.509 235.242C659.91 235.242 663.195 238.19 663.195 243.496V244.254C659.995 243.159 656.71 242.401 652.161 242.401C641.465 242.401 633.969 246.95 633.969 256.804V256.973C633.969 265.901 640.959 270.786 649.466 270.786C655.699 270.786 659.995 268.512 663.111 265.058V269.943H675.492ZM663.364 254.025C663.364 258.657 659.321 261.942 653.341 261.942C649.214 261.942 646.35 259.92 646.35 256.467V256.299C646.35 252.256 649.719 250.066 655.194 250.066C658.31 250.066 661.174 250.74 663.364 251.75V254.025ZM729.504 224.798H716.196L706.341 255.541L696.066 224.798H682.505L700.193 270.112C699.098 272.386 697.919 273.06 695.729 273.06C694.044 273.06 691.939 272.302 690.254 271.291L685.959 280.556C689.244 282.493 692.697 283.672 697.329 283.672C704.994 283.672 708.7 280.219 712.153 271.038L729.504 224.798ZM761.928 249.982V237.685H735.986V249.982H761.928ZM828.484 261.605V236H802.879V247.202H815.934V255.625C812.649 257.983 808.438 259.162 803.721 259.162C793.277 259.162 785.865 251.245 785.865 240.464V240.296C785.865 230.273 793.361 221.934 802.795 221.934C809.617 221.934 813.66 224.124 818.208 227.914L826.378 218.06C820.229 212.838 813.828 209.974 803.216 209.974C785.36 209.974 772.305 223.703 772.305 240.464V240.633C772.305 258.067 784.939 270.954 803.3 270.954C814.081 270.954 822.419 266.743 828.484 261.605ZM887.963 247.455V247.286C887.963 234.316 877.603 223.956 863.621 223.956C849.555 223.956 839.111 234.484 839.111 247.455V247.623C839.111 260.594 849.471 270.954 863.453 270.954C877.518 270.954 887.963 260.426 887.963 247.455ZM875.329 247.623C875.329 254.277 870.949 259.92 863.621 259.92C856.546 259.92 851.745 254.109 851.745 247.455V247.286C851.745 240.633 856.125 234.989 863.453 234.989C870.528 234.989 875.329 240.801 875.329 247.455V247.623ZM910.412 269.943V256.467H896.767V269.943H910.412Z"
        fill="#66CC7C" />
    <path
        d="M350.773 176.544V150.826H341.901V176.15C341.901 180.699 339.88 182.664 336.623 182.664C333.872 182.664 331.682 181.204 329.436 178.733L323.989 184.798C326.684 187.998 330.727 190.694 336.848 190.694C345.158 190.694 350.773 186.089 350.773 176.544ZM387.185 190.132V160.035H378.65V176.824C378.65 180.867 376.572 182.945 373.315 182.945C370.058 182.945 368.149 180.867 368.149 176.824V160.035H359.614V179.52C359.614 186.426 363.377 190.694 369.834 190.694C374.157 190.694 376.684 188.391 378.65 185.865V190.132H387.185ZM418.014 180.979V180.867C418.014 175.364 413.129 173.343 408.918 171.939C405.661 170.816 402.797 170.03 402.797 168.346V168.233C402.797 167.054 403.864 166.156 405.942 166.156C408.131 166.156 411.107 167.222 414.083 168.963L417.34 163.067C414.083 160.877 409.928 159.586 406.11 159.586C400.046 159.586 395.104 163.011 395.104 169.132V169.244C395.104 175.084 399.877 177.049 404.089 178.284C407.401 179.295 410.321 179.913 410.321 181.766V181.878C410.321 183.226 409.198 184.124 406.728 184.124C403.92 184.124 400.495 182.889 397.238 180.53L393.588 186.145C397.575 189.29 402.292 190.694 406.503 190.694C413.017 190.694 418.014 187.661 418.014 180.979ZM441.608 188.897V182.046C440.373 182.72 438.969 183.113 437.397 183.113C435.487 183.113 434.645 182.159 434.645 180.193V167.335H441.72V160.035H434.645V152.342H426.11V160.035H422.517V167.335H426.11V181.597C426.11 188.56 429.648 190.637 434.87 190.637C437.734 190.637 439.811 189.964 441.608 188.897Z"
        fill="#893976" />
</svg>
