<svg width="15" height="17" viewBox="0 0 15 17" fill="none" xmlns="http://www.w3.org/2000/svg">
<path d="M14.4643 14.1667C14.4357 14.1667 14.4071 14.1525 14.3786 14.1454C14.3429 14.1525 14.3143 14.1667 14.2857 14.1667H13.5714V16.2917C13.5714 16.6813 13.25 17 12.8571 17H2.14286C1.08571 17 0.207143 16.235 0.0357143 15.2292C0.0142857 15.1725 0 15.1158 0 15.0521V1.94792C0 0.87125 0.878571 0 1.96429 0H14.4643C14.7571 0 15 0.240833 15 0.53125V13.6354C15 13.9258 14.7571 14.1667 14.4643 14.1667ZM7.5 2.47917C4.94286 2.47917 2.85714 4.5475 2.85714 7.08333C2.85714 9.61917 4.94286 11.6875 7.5 11.6875C10.0571 11.6875 12.1429 9.61917 12.1429 7.08333C12.1429 4.5475 10.0571 2.47917 7.5 2.47917ZM12.1429 14.1667H2.14286C1.75 14.1667 1.42857 14.4854 1.42857 14.875C1.42857 15.2646 1.75 15.5833 2.14286 15.5833H12.1429V14.1667Z" fill="white"/>
<path d="M8.57142 5.31251C8.38856 5.31251 8.20571 5.38193 8.06642 5.52005L6.99499 6.58256C6.86071 6.71502 6.78571 6.89493 6.78571 7.08335V9.20835C6.78571 9.60006 7.10571 9.91669 7.49999 9.91669C7.89428 9.91669 8.21428 9.60006 8.21428 9.20835V7.3766L9.07642 6.52164C9.35571 6.24468 9.35571 5.79701 9.07642 5.52005C8.93713 5.38193 8.75428 5.31251 8.57142 5.31251Z" fill="white"/>
</svg>
