<svg width="15" height="17" viewBox="0 0 15 17" fill="none" xmlns="http://www.w3.org/2000/svg">
<path d="M14.6429 -7.62939e-06H1.78571C0.801429 -7.62939e-06 0 0.794033 0 1.77082V15.2291C0 15.4246 0.16 15.5833 0.357143 15.5833C0.554286 15.5833 0.714286 15.4246 0.714286 15.2291V1.77082C0.714286 1.18503 1.195 0.708324 1.78571 0.708324H14.2857V13.8125C14.2857 14.008 14.4457 14.1666 14.6429 14.1666C14.84 14.1666 15 14.008 15 13.8125V0.354158C15 0.158658 14.84 -7.62939e-06 14.6429 -7.62939e-06Z" fill="white" fill-opacity="0.6"/>
<path d="M14.6429 13.4583H1.78571C0.801429 13.4583 0 14.2524 0 15.2292C0 16.206 0.801429 17 1.78571 17H13.2143C13.4114 17 13.5714 16.8413 13.5714 16.6458V14.1667H14.6429C14.84 14.1667 15 14.008 15 13.8125C15 13.617 14.84 13.4583 14.6429 13.4583ZM1.78571 16.2917C1.195 16.2917 0.714286 15.815 0.714286 15.2292C0.714286 14.6434 1.195 14.1667 1.78571 14.1667H12.8571V16.2917H1.78571Z" fill="white" fill-opacity="0.6"/>
<path d="M7.49997 2.47917C4.93997 2.47917 2.85712 4.54467 2.85712 7.08334C2.85712 9.622 4.93997 11.6875 7.49997 11.6875C10.06 11.6875 12.1428 9.622 12.1428 7.08334C12.1428 4.54467 10.06 2.47917 7.49997 2.47917ZM7.49997 10.9792C5.33355 10.9792 3.5714 9.231 3.5714 7.08334C3.5714 4.93567 5.33355 3.18751 7.49997 3.18751C9.6664 3.18751 11.4285 4.93567 11.4285 7.08334C11.4285 9.231 9.6664 10.9792 7.49997 10.9792Z" fill="white" fill-opacity="0.6"/>
<path d="M8.9286 5.3125C8.83717 5.3125 8.74574 5.34721 8.67574 5.41592L7.24717 6.83258C7.18074 6.89917 7.14288 6.98913 7.14288 7.08333V9.20833C7.14288 9.40383 7.30288 9.5625 7.50003 9.5625C7.69717 9.5625 7.85717 9.40383 7.85717 9.20833V7.22996L9.18145 5.91671C9.32074 5.77859 9.32074 5.55404 9.18145 5.41592C9.11145 5.34721 9.02003 5.3125 8.9286 5.3125Z" fill="white" fill-opacity="0.6"/>
</svg>
