<svg width="30" height="30" viewBox="0 0 30 30" fill="none" xmlns="http://www.w3.org/2000/svg">
    <defs>
        <clipPath id="clip0">
            <rect width="30" height="30" fill="white" />
        </clipPath>
    </defs>
    <g clip-path="url(#clip0)">
        <path
            d="M8.87243 12.9698L2.32092 25.3131L8.27027 24.7635L11.1497 29.9991L17.7013 17.6558L8.87243 12.9698Z"
            fill="#E95454" />
        <path
            d="M9.6228 26.4049C9.80664 26.01 9.61436 25.5382 9.2298 25.3338L8.85275 25.133C8.4757 24.9183 8.3322 24.4409 8.53761 24.0544C8.74583 23.6614 9.23543 23.5114 9.62843 23.7196L10.6939 24.2852C11.0231 24.4596 11.4358 24.333 11.6056 24.0019L11.6319 23.9512C11.827 23.6389 11.7116 23.2262 11.3871 23.0546L8.19995 21.3635C7.81164 21.1571 7.62124 20.6872 7.80226 20.2914C8.00204 19.8703 8.50665 19.7043 8.91278 19.92L11.8692 21.4892C12.1984 21.6636 12.6111 21.537 12.7855 21.2078L12.8024 21.1646L12.8071 21.1552C12.9956 20.8101 12.8634 20.3768 12.5154 20.192L10.8571 19.3122C10.4688 19.1059 10.2784 18.6359 10.4623 18.2354C10.6602 17.819 11.1667 17.6483 11.5728 17.864L13.4046 18.8367C13.7469 19.0186 14.1559 18.8667 14.3331 18.5215C14.3359 18.5168 14.3359 18.5168 14.3378 18.5121C14.3406 18.5074 14.3406 18.5074 14.3425 18.5028C14.5292 18.1623 14.426 17.7383 14.0827 17.5573L12.1065 16.5087C11.7228 16.3052 11.5324 15.8353 11.7135 15.4394C11.9132 15.0183 12.4179 14.8523 12.824 15.068L17.6994 17.6558L11.1479 29.9991L9.34236 26.7172C9.45866 26.6384 9.55996 26.5409 9.6228 26.4049Z"
            fill="#ED6362" />
        <path
            d="M21.1275 12.9698L27.679 25.3131L21.7297 24.7635L18.8502 29.9991L12.2987 17.6558L21.1275 12.9698Z"
            fill="#ED6362" />
        <path
            d="M20.3772 26.4049C20.1934 26.01 20.3857 25.5382 20.7702 25.3337L21.1473 25.133C21.5243 24.9182 21.6678 24.4408 21.4624 24.0544C21.2542 23.6614 20.7646 23.5113 20.3716 23.7196L19.3061 24.2851C18.9769 24.4596 18.5642 24.333 18.3944 24.0019L18.3682 23.9512C18.1731 23.6389 18.2884 23.2262 18.613 23.0546L21.801 21.3625C22.1893 21.1562 22.3797 20.6863 22.1987 20.2904C21.9989 19.8693 21.4943 19.7033 21.0882 19.919L18.1318 21.4882C17.8026 21.6627 17.3899 21.536 17.2154 21.2068L17.1985 21.1637L17.1939 21.1543C17.0053 20.8091 17.1376 20.3758 17.4856 20.191L19.1438 19.3112C19.5321 19.1049 19.7225 18.635 19.5387 18.2345C19.3408 17.818 18.8343 17.6473 18.4282 17.8631L16.5945 18.8376C16.2522 19.0195 15.8432 18.8676 15.6659 18.5224C15.6631 18.5177 15.6631 18.5177 15.6613 18.5131C15.6584 18.5084 15.6584 18.5084 15.6566 18.5037C15.4699 18.1632 15.5731 17.7392 15.9164 17.5582L17.8926 16.5096C18.2762 16.3061 18.4666 15.8362 18.2856 15.4404C18.0858 15.0192 17.5812 14.8532 17.1751 15.0689L12.2997 17.6567L18.8512 30L20.6567 26.7181C20.5414 26.6384 20.4401 26.5409 20.3772 26.4049Z"
            fill="#E95454" />
        <path
            d="M15 21.8934C21.0457 21.8934 25.9467 16.9924 25.9467 10.9467C25.9467 4.901 21.0457 0 15 0C8.95429 0 4.05328 4.901 4.05328 10.9467C4.05328 16.9924 8.95429 21.8934 15 21.8934Z"
            fill="#FFCC5B" />
        <path
            d="M16.4848 9.69081H9.54776C9.00845 9.69081 8.56574 9.2481 8.56574 8.70879L8.57325 8.64126V8.62625C8.56574 8.05692 9.03002 7.5917 9.60029 7.5917H14.4082C15.045 7.5917 15.6078 7.11992 15.6453 6.48212C15.6753 5.81525 15.1435 5.25248 14.4757 5.25248H9.38269C8.82086 5.25248 8.40067 4.7807 8.40817 4.21794C8.40817 4.21043 8.40817 4.21043 8.40817 4.20293C8.40817 4.19542 8.40817 4.19542 8.40817 4.18792C8.40067 3.6261 8.81992 3.15337 9.38269 3.15337H14.7121C15.3414 3.15337 15.9042 2.68159 15.9417 2.05129C15.9717 1.37692 15.4399 0.821655 14.7721 0.821655H10.8693C6.88964 2.46211 4.08521 6.3752 4.08521 10.9467C4.08521 15.5182 6.88964 19.4304 10.8703 21.069H15.8254C16.4548 21.069 17.0175 20.5972 17.055 19.9669C17.085 19.2925 16.5532 18.7382 15.8854 18.7382L10.2484 18.7372C9.58341 18.7372 9.04784 18.181 9.08348 17.5076C9.11631 16.8773 9.68283 16.4036 10.3141 16.4036H12.4995C13.1279 16.3858 13.6353 15.8709 13.6353 15.2378C13.6353 14.5934 13.111 14.0682 12.4657 14.0682H9.15289C8.61358 14.0682 8.17087 13.6264 8.17837 13.0862V13.0036C8.14086 12.4718 8.56856 12.0216 9.10037 12.0216H16.4172C17.0541 12.0216 17.6169 11.5498 17.6544 10.9195C17.6844 10.2461 17.1516 9.69081 16.4848 9.69081Z"
            fill="#FDBC4B" />
        <path
            d="M15 18.7597C10.6911 18.7597 7.18604 15.2537 7.18604 10.9457C7.18604 6.63777 10.6911 3.13269 15 3.13269C19.3089 3.13269 22.814 6.63871 22.814 10.9467C22.814 15.2546 19.3089 18.7597 15 18.7597Z"
            fill="#FFDB70" />
        <path opacity="0.2"
            d="M22.814 10.9467C22.814 6.78973 19.5481 3.3897 15.4484 3.15521H14.7205C14.2403 3.15521 13.8117 3.51538 13.7826 3.99561C13.7601 4.5096 14.1653 4.93355 14.6746 4.93355L18.9741 4.93448C19.4815 4.93448 19.8895 5.35843 19.8623 5.87242C19.837 6.35359 19.4055 6.71469 18.9234 6.71469H17.2567C16.7774 6.72876 16.3901 7.12082 16.3901 7.60386C16.3901 8.09534 16.7906 8.49584 17.282 8.49584H19.8088C20.2206 8.49584 20.5573 8.8335 20.5517 9.24432V9.30622C20.5798 9.71235 20.2544 10.0547 19.8482 10.0547H14.2684C13.7826 10.0547 13.3539 10.4149 13.3249 10.8951C13.3024 11.4091 13.7075 11.833 14.2168 11.833H19.5068C19.9186 11.833 20.2553 12.1707 20.2553 12.5815L20.2497 12.6331V12.6443C20.2553 13.0786 19.9008 13.4332 19.4665 13.4332H15.7992C15.3133 13.4332 14.8847 13.7933 14.8556 14.2792C14.8331 14.7875 15.2383 15.2171 15.7476 15.2171H19.6316C20.0602 15.2171 20.3801 15.5773 20.3744 16.0059C20.3744 16.0116 20.3744 16.0116 20.3744 16.0172C20.3744 16.0228 20.3744 16.0228 20.3744 16.0284C20.3801 16.4571 20.0602 16.8172 19.6316 16.8172H15.5675C15.0873 16.8172 14.6586 17.1774 14.6295 17.6576C14.607 18.1726 15.0122 18.5956 15.5215 18.5956H16.5936C20.1418 17.8565 22.814 14.7078 22.814 10.9467Z"
            fill="white" />
        <path
            d="M20.4551 9.2162H16.6545L15.4793 5.60138C15.3283 5.1371 14.6708 5.1371 14.5198 5.60138L13.3455 9.2162H9.54497C9.0563 9.2162 8.85277 9.84181 9.24858 10.1288L12.3231 12.363L11.1488 15.9778C10.9978 16.4421 11.5296 16.8285 11.9255 16.5415L15 14.3073L18.0746 16.5415C18.4704 16.8285 19.0022 16.4421 18.8512 15.9778L17.6769 12.363L20.7515 10.1288C21.1463 9.84181 20.9437 9.2162 20.4551 9.2162Z"
            fill="#EC9922" />
    </g>
</svg>
