<svg width="25" height="33" viewBox="0 0 25 33" fill="none" xmlns="http://www.w3.org/2000/svg">
<circle cx="12.5" cy="20.5" r="12.5" fill="#9D27B0"/>
<path d="M11.2965 13.7872C11.736 12.7376 13.264 12.7376 13.7035 13.7872L14.7957 16.3956C14.9821 16.8408 15.412 17.1446 15.9049 17.1794L18.7929 17.3837C19.955 17.4659 20.4272 18.8794 19.5367 19.6103L17.3237 21.4267C16.946 21.7367 16.7818 22.2283 16.9 22.695L17.5927 25.4296C17.8715 26.53 16.6352 27.4036 15.6454 26.8057L13.1856 25.3199C12.7657 25.0663 12.2343 25.0663 11.8144 25.3199L9.35461 26.8057C8.36476 27.4036 7.12854 26.53 7.40728 25.4296L8.09995 22.695C8.21818 22.2283 8.05396 21.7367 7.67625 21.4267L5.46332 19.6103C4.57282 18.8794 5.04501 17.4659 6.20714 17.3837L9.09506 17.1794C9.58798 17.1446 10.0179 16.8408 10.2043 16.3956L11.2965 13.7872Z" fill="#FFDC00"/>
<path d="M12.5 1V5M6.5 2V6M18.5 2V6" stroke="#6A1B9A" stroke-width="2" stroke-linecap="round"/>
</svg>
