<svg width="439" height="543" viewBox="0 0 439 543" fill="none" xmlns="http://www.w3.org/2000/svg">
    <path
        d="M126.113 204.997H60.5438C38.5965 204.997 20.8047 222.789 20.8047 244.736V165.258C20.8047 143.311 38.5965 125.519 60.5438 125.519H111.907C107.254 152.858 112.278 180.963 126.113 204.997Z"
        fill="#6D4122" />
    <path
        d="M438.065 165.258C438.078 175.802 433.895 185.917 426.44 193.373C418.984 200.828 408.869 205.011 398.325 204.997L332.756 204.997C346.591 180.963 351.615 152.858 346.963 125.519H398.325C420.273 125.519 438.065 143.311 438.065 165.258Z"
        fill="#6D4122" />
    <ellipse cx="219.5" cy="143.438" rx="141.178" ry="142.604" fill="#9D27B0" />
    <path
        d="M205.906 66.8558C210.87 54.8814 228.128 54.8814 233.092 66.8558L245.427 96.6127C247.533 101.692 252.388 105.158 257.956 105.555L290.573 107.886C303.698 108.824 309.031 124.95 298.974 133.288L273.98 154.009C269.714 157.546 267.859 163.154 269.195 168.479L277.018 199.676C280.166 212.23 266.204 222.197 255.024 215.376L227.242 198.425C222.5 195.532 216.498 195.532 211.756 198.425L183.974 215.376C172.795 222.197 158.833 212.23 161.981 199.676L169.804 168.479C171.139 163.154 169.285 157.546 165.019 154.009L140.025 133.288C129.968 124.95 135.301 108.824 148.426 107.886L181.043 105.555C186.61 105.158 191.466 101.692 193.571 96.6127L205.906 66.8558Z"
        fill="#FFDC00" />
    <path
        d="M438.066 165.258L438.066 503.041C438.066 524.988 420.274 542.78 398.326 542.78H60.5438C38.5965 542.78 20.8047 524.988 20.8047 503.041V433.497H120.153C153.053 433.448 179.712 406.789 179.761 373.889C179.761 340.968 153.073 314.28 120.153 314.28H20.8047V244.736C20.8047 222.789 38.5965 204.997 60.5438 204.997H398.326C408.87 205.011 418.985 200.828 426.441 193.373C433.896 185.917 438.079 175.802 438.066 165.258V165.258Z"
        fill="#91562D" />
    <path
        d="M426.441 193.374C421.381 198.311 415.111 201.829 408.261 203.577V503.041C408.261 524.988 390.469 542.78 368.521 542.78H398.326C420.273 542.78 438.065 524.988 438.065 503.041V165.258C438.046 175.795 433.869 185.899 426.441 193.374Z"
        fill="#6D4122" />
    <path
        d="M179.76 373.889C179.711 406.789 153.052 433.448 120.152 433.497H20.8039C9.84382 433.465 0.967059 424.588 0.934326 413.628V334.149C0.967059 323.189 9.84382 314.313 20.8039 314.28H120.152C153.073 314.28 179.76 340.968 179.76 373.889Z"
        fill="#A0522D" />
    <path
        d="M120.151 314.28H90.3466C123.268 314.28 149.955 340.968 149.955 373.889C149.906 406.789 123.247 433.448 90.3466 433.497H120.151C153.051 433.448 179.71 406.789 179.76 373.889C179.76 358.079 173.479 342.918 162.301 331.739C151.122 320.56 135.96 314.28 120.151 314.28Z"
        fill="#783E22" />
    <path
        d="M120.152 393.758C131.126 393.758 140.022 384.862 140.022 373.888C140.022 362.915 131.126 354.019 120.152 354.019C109.179 354.019 100.283 362.915 100.283 373.888C100.283 384.862 109.179 393.758 120.152 393.758Z"
        fill="#9E9E9E" />
</svg>
