<svg width="29" height="36" viewBox="0 0 29 36" fill="none" xmlns="http://www.w3.org/2000/svg">
<path d="M8.61336 13.8333H4.43336C3.03424 13.8333 1.90002 14.9675 1.90002 16.3667V11.3C1.90002 9.90087 3.03424 8.76666 4.43336 8.76666H7.70769C7.4111 10.5095 7.73137 12.3012 8.61336 13.8333Z" fill="#6D4122"/>
<path d="M28.5 11.3C28.5009 11.9721 28.2342 12.617 27.7589 13.0923C27.2837 13.5675 26.6388 13.8342 25.9667 13.8333L21.7867 13.8333C22.6687 12.3012 22.9889 10.5095 22.6923 8.76666H25.9667C27.3658 8.76666 28.5 9.90087 28.5 11.3Z" fill="#6D4122"/>
<ellipse cx="14.5667" cy="9.90907" rx="8.99998" ry="9.09089" fill="#9D27B0"/>
<path d="M13.7002 5.02705C14.0166 4.26369 15.1168 4.26369 15.4332 5.02705L16.2196 6.92402C16.3538 7.2478 16.6633 7.46876 17.0182 7.49412L19.0975 7.64269C19.9343 7.70247 20.2743 8.73048 19.6331 9.26204L18.0398 10.583C17.7678 10.8085 17.6496 11.166 17.7347 11.5054L18.2334 13.4942C18.4341 14.2945 17.5441 14.9299 16.8314 14.4951L15.0603 13.4145C14.758 13.23 14.3754 13.23 14.0731 13.4145L12.302 14.4951C11.5893 14.9299 10.6992 14.2945 10.8999 13.4942L11.3987 11.5054C11.4838 11.166 11.3655 10.8085 11.0936 10.583L9.50028 9.26204C8.85912 8.73048 9.1991 7.70247 10.0358 7.64269L12.1151 7.49412C12.47 7.46876 12.7796 7.2478 12.9138 6.92402L13.7002 5.02705Z" fill="#FFDC00"/>
<path d="M28.5 11.3L28.5 32.8333C28.5 34.2325 27.3658 35.3667 25.9667 35.3667H4.43336C3.03424 35.3667 1.90002 34.2325 1.90002 32.8333V28.4H8.23336C10.3307 28.3969 12.0302 26.6974 12.0334 24.6C12.0334 22.5013 10.332 20.8 8.23336 20.8H1.90002V16.3667C1.90002 14.9675 3.03424 13.8333 4.43336 13.8333H25.9667C26.6388 13.8342 27.2837 13.5675 27.759 13.0923C28.2342 12.617 28.5009 11.9721 28.5 11.3V11.3Z" fill="#91562D"/>
<path d="M27.759 13.0923C27.4365 13.407 27.0367 13.6314 26.6 13.7428V32.8333C26.6 34.2325 25.4658 35.3667 24.0667 35.3667H25.9667C27.3658 35.3667 28.5 34.2325 28.5 32.8333V11.3C28.4988 11.9717 28.2325 12.6158 27.759 13.0923Z" fill="#6D4122"/>
<path d="M12.0334 24.6C12.0302 26.6974 10.3307 28.3969 8.23336 28.4H1.90003C1.20133 28.3979 0.635449 27.832 0.633362 27.1333V22.0667C0.635449 21.368 1.20133 20.8021 1.90003 20.8H8.23336C10.332 20.8 12.0334 22.5013 12.0334 24.6Z" fill="#A0522D"/>
<path d="M8.23337 20.8H6.33337C8.43206 20.8 10.1334 22.5013 10.1334 24.6C10.1302 26.6974 8.43076 28.3969 6.33337 28.4H8.23337C10.3308 28.3969 12.0302 26.6974 12.0334 24.6C12.0334 23.5922 11.633 22.6256 10.9204 21.913C10.2077 21.2003 9.2412 20.8 8.23337 20.8Z" fill="#783E22"/>
<path d="M8.2334 25.8667C8.93296 25.8667 9.50007 25.2996 9.50007 24.6C9.50007 23.9005 8.93296 23.3334 8.2334 23.3334C7.53384 23.3334 6.96674 23.9005 6.96674 24.6C6.96674 25.2996 7.53384 25.8667 8.2334 25.8667Z" fill="#9E9E9E"/>
<path d="M8.23331 26.5C9.28265 26.5 10.1333 25.6493 10.1333 24.6C10.1333 23.5507 9.28265 22.7 8.23331 22.7C7.18397 22.7 6.33331 23.5507 6.33331 24.6C6.33331 25.6493 7.18397 26.5 8.23331 26.5ZM8.23331 23.9667C8.58309 23.9667 8.86665 24.2502 8.86665 24.6C8.86665 24.9498 8.58309 25.2333 8.23331 25.2333C7.88353 25.2333 7.59998 24.9498 7.59998 24.6C7.59998 24.2502 7.88353 23.9667 8.23331 23.9667Z" fill="black"/>
<path d="M24.0667 17H24.7C25.0498 17 25.3333 16.7165 25.3333 16.3667C25.3333 16.0169 25.0498 15.7333 24.7 15.7333H24.0667C23.7169 15.7333 23.4333 16.0169 23.4333 16.3667C23.4333 16.7165 23.7169 17 24.0667 17Z" fill="black"/>
<path d="M20.9 17H21.5333C21.8831 17 22.1667 16.7165 22.1667 16.3667C22.1667 16.0169 21.8831 15.7333 21.5333 15.7333H20.9C20.5502 15.7333 20.2667 16.0169 20.2667 16.3667C20.2667 16.7165 20.5502 17 20.9 17Z" fill="black"/>
<path d="M17.7333 17H18.3666C18.7164 17 19 16.7165 19 16.3667C19 16.0169 18.7164 15.7333 18.3666 15.7333H17.7333C17.3835 15.7333 17.1 16.0169 17.1 16.3667C17.1 16.7165 17.3835 17 17.7333 17Z" fill="black"/>
<path d="M14.5667 17H15.2C15.5498 17 15.8333 16.7165 15.8333 16.3667C15.8333 16.0169 15.5498 15.7333 15.2 15.7333H14.5667C14.2169 15.7333 13.9333 16.0169 13.9333 16.3667C13.9333 16.7165 14.2169 17 14.5667 17Z" fill="black"/>
<path d="M11.4 17H12.0333C12.3831 17 12.6667 16.7165 12.6667 16.3667C12.6667 16.0169 12.3831 15.7333 12.0333 15.7333H11.4C11.0502 15.7333 10.7667 16.0169 10.7667 16.3667C10.7667 16.7165 11.0502 17 11.4 17Z" fill="black"/>
<path d="M8.23331 17H8.86664C9.21642 17 9.49998 16.7165 9.49998 16.3667C9.49998 16.0169 9.21642 15.7333 8.86664 15.7333H8.23331C7.88353 15.7333 7.59998 16.0169 7.59998 16.3667C7.59998 16.7165 7.88353 17 8.23331 17Z" fill="black"/>
<path d="M5.06668 17H5.70001C6.04979 17 6.33335 16.7165 6.33335 16.3667C6.33335 16.0169 6.04979 15.7333 5.70001 15.7333H5.06668C4.7169 15.7333 4.43335 16.0169 4.43335 16.3667C4.43335 16.7165 4.7169 17 5.06668 17Z" fill="black"/>
<path d="M24.0667 33.4667H24.7C25.0498 33.4667 25.3333 33.1832 25.3333 32.8334C25.3333 32.4836 25.0498 32.2001 24.7 32.2001H24.0667C23.7169 32.2001 23.4333 32.4836 23.4333 32.8334C23.4333 33.1832 23.7169 33.4667 24.0667 33.4667Z" fill="black"/>
<path d="M20.9 33.4667H21.5333C21.8831 33.4667 22.1667 33.1832 22.1667 32.8334C22.1667 32.4836 21.8831 32.2001 21.5333 32.2001H20.9C20.5502 32.2001 20.2667 32.4836 20.2667 32.8334C20.2667 33.1832 20.5502 33.4667 20.9 33.4667Z" fill="black"/>
<path d="M17.7333 33.4667H18.3666C18.7164 33.4667 19 33.1832 19 32.8334C19 32.4836 18.7164 32.2001 18.3666 32.2001H17.7333C17.3835 32.2001 17.1 32.4836 17.1 32.8334C17.1 33.1832 17.3835 33.4667 17.7333 33.4667Z" fill="black"/>
<path d="M14.5667 33.4667H15.2C15.5498 33.4667 15.8333 33.1832 15.8333 32.8334C15.8333 32.4836 15.5498 32.2001 15.2 32.2001H14.5667C14.2169 32.2001 13.9333 32.4836 13.9333 32.8334C13.9333 33.1832 14.2169 33.4667 14.5667 33.4667Z" fill="black"/>
<path d="M12.0333 32.2001H11.4C11.0502 32.2001 10.7667 32.4836 10.7667 32.8334C10.7667 33.1832 11.0502 33.4667 11.4 33.4667H12.0333C12.3831 33.4667 12.6667 33.1832 12.6667 32.8334C12.6667 32.4836 12.3831 32.2001 12.0333 32.2001Z" fill="black"/>
<path d="M8.86664 32.2001H8.23331C7.88353 32.2001 7.59998 32.4836 7.59998 32.8334C7.59998 33.1832 7.88353 33.4667 8.23331 33.4667H8.86664C9.21642 33.4667 9.49998 33.1832 9.49998 32.8334C9.49998 32.4836 9.21642 32.2001 8.86664 32.2001Z" fill="black"/>
<path d="M5.70001 32.2001H5.06668C4.7169 32.2001 4.43335 32.4836 4.43335 32.8334C4.43335 33.1832 4.7169 33.4667 5.06668 33.4667H5.70001C6.04979 33.4667 6.33335 33.1832 6.33335 32.8334C6.33335 32.4836 6.04979 32.2001 5.70001 32.2001Z" fill="black"/>
</svg>
