<svg width="17" height="17" viewBox="0 0 17 17" fill="none" xmlns="http://www.w3.org/2000/svg">
    <path
        d="M0 8.5C0 3.80558 3.80558 0 8.5 0C13.1944 0 17 3.80558 17 8.5C17 13.1944 13.1944 17 8.5 17C3.80558 17 0 13.1944 0 8.5Z"
        fill="white" fill-opacity="0.24" />
    <path
        d="M7.92 8.12L7.87 8.17L8.07 9.79H8.88L8.98 8.98C9.26 8.93333 9.52 8.86 9.76 8.76C10.0067 8.66 10.22 8.53 10.4 8.37C10.58 8.21 10.7233 8.01333 10.83 7.78C10.9367 7.54667 10.99 7.27 10.99 6.95C10.99 6.63667 10.9333 6.35333 10.82 6.1C10.7067 5.84667 10.5467 5.63333 10.34 5.46C10.14 5.28 9.89333 5.14333 9.6 5.05C9.31333 4.95667 8.99667 4.91 8.65 4.91C8.11 4.91 7.64667 5.01333 7.26 5.22C6.87333 5.42 6.53333 5.68667 6.24 6.02L6.99 6.82C7.23 6.56667 7.48 6.37333 7.74 6.24C8.00667 6.1 8.3 6.03 8.62 6.03C8.98 6.03 9.26 6.12 9.46 6.3C9.66667 6.47333 9.77 6.70333 9.77 6.99C9.77 7.33 9.62 7.59667 9.32 7.79C9.02667 7.98333 8.56 8.09333 7.92 8.12ZM9.12 12V10.63H7.78V12H9.12Z"
        fill="white" />
</svg>
