<svg width="20" height="20" viewBox="0 0 20 20" fill="none" xmlns="http://www.w3.org/2000/svg">
<g clip-path="url(#clip0)">
<path d="M13.3103 2.14901L12.7243 1.37972L13.3103 0.61053C13.4376 0.443625 13.4055 0.205149 13.2386 0.0778634C13.1721 0.0271967 13.0908 -0.000184234 13.0073 6.24225e-06H10.0073C9.79573 -0.00118423 9.62259 0.168054 9.61902 0.379578V3.76191H10.3809V2.76191H13.0073C13.2181 2.76143 13.3887 2.5901 13.3882 2.37924C13.388 2.29605 13.3606 2.2152 13.3103 2.14901Z" fill="white"/>
<path d="M1.27915 11.9999C0.968818 11.9983 0.715913 12.2486 0.714294 12.5589C0.714294 12.5613 0.714294 12.5638 0.714294 12.5663V19.9999H5.52382V11.9999H1.27915ZM2.52382 17.9047C2.52382 18.1151 2.35325 18.2857 2.14287 18.2857C1.93248 18.2857 1.76191 18.1151 1.76191 17.9047V17.0861C1.76191 16.8757 1.93248 16.7051 2.14287 16.7051C2.35325 16.7051 2.52382 16.8757 2.52382 17.0861V17.9047ZM2.52382 14.7162C2.52382 14.9266 2.35325 15.0972 2.14287 15.0972C1.93248 15.0972 1.76191 14.9266 1.76191 14.7162V13.8976C1.76191 13.6872 1.93248 13.5166 2.14287 13.5166C2.35325 13.5166 2.52382 13.6872 2.52382 13.8976V14.7162ZM4.4762 17.9047C4.4762 18.1151 4.30563 18.2857 4.09525 18.2857C3.88487 18.2857 3.71429 18.1151 3.71429 17.9047V17.0861C3.71429 16.8757 3.88487 16.7051 4.09525 16.7051C4.30563 16.7051 4.4762 16.8757 4.4762 17.0861V17.9047ZM4.4762 14.7162C4.4762 14.9266 4.30563 15.0972 4.09525 15.0972C3.88487 15.0972 3.71429 14.9266 3.71429 14.7162V13.8976C3.71429 13.6872 3.88487 13.5166 4.09525 13.5166C4.30563 13.5166 4.4762 13.6872 4.4762 13.8976V14.7162Z" fill="white"/>
<path d="M9.93875 6.69043L6.28571 9.79776V20H7.95237V16.0328C7.94732 15.8356 8.10309 15.6717 8.30028 15.6666C8.30671 15.6664 8.31313 15.6664 8.31956 15.6666H11.5942C11.7873 15.6618 11.9478 15.8143 11.9527 16.0074C11.9528 16.0159 11.9528 16.0243 11.9524 16.0328V20H13.5714V9.79424L9.93875 6.69043ZM11.5942 13.5238H8.29804C8.08766 13.5238 7.91709 13.3532 7.91709 13.1428C7.91709 12.9324 8.08766 12.7619 8.29804 12.7619H11.5942C11.8046 12.7619 11.9752 12.9324 11.9752 13.1428C11.9752 13.3532 11.8046 13.5238 11.5942 13.5238Z" fill="white"/>
<path d="M18.7283 11.9999C18.7258 11.9999 18.7233 11.9999 18.7208 11.9999H14.3333V19.9999H19.2857V12.5663C19.2882 12.2559 19.0386 12.0024 18.7283 11.9999ZM16.2857 17.9047C16.2857 18.1151 16.1151 18.2857 15.9047 18.2857C15.6944 18.2857 15.5238 18.1151 15.5238 17.9047V17.0861C15.5238 16.8757 15.6944 16.7051 15.9047 16.7051C16.1151 16.7051 16.2857 16.8757 16.2857 17.0861V17.9047ZM16.2857 14.7162C16.2857 14.9266 16.1151 15.0972 15.9047 15.0972C15.6944 15.0972 15.5238 14.9266 15.5238 14.7162V13.8976C15.5238 13.6872 15.6944 13.5166 15.9047 13.5166C16.1151 13.5166 16.2857 13.6872 16.2857 13.8976V14.7162ZM18.1905 17.9047C18.1905 18.1151 18.0199 18.2857 17.8095 18.2857C17.5991 18.2857 17.4286 18.1151 17.4286 17.9047V17.0861C17.4286 16.8757 17.5991 16.7051 17.8095 16.7051C18.0199 16.7051 18.1905 16.8757 18.1905 17.0861V17.9047ZM18.1905 14.7162C18.1905 14.9266 18.0199 15.0972 17.8095 15.0972C17.5991 15.0972 17.4286 14.9266 17.4286 14.7162V13.8976C17.4286 13.6872 17.5991 13.5166 17.8095 13.5166C18.0199 13.5166 18.1905 13.6872 18.1905 13.8976V14.7162Z" fill="white"/>
<path d="M9.95713 4.27789L4.50555 8.94504L5.19451 9.7467L9.70979 5.89932C9.85241 5.7778 10.0622 5.77799 10.2046 5.89985L14.7011 9.74827L15.4059 8.94285L9.95713 4.27789Z" fill="white"/>
<path d="M11.1905 16.4286H8.71429V20.0001H11.1905V16.4286Z" fill="white"/>
</g>
<defs>
<clipPath id="clip0">
<rect width="20" height="20" fill="white"/>
</clipPath>
</defs>
</svg>
