<svg width="28" height="35" viewBox="0 0 28 35" fill="none" xmlns="http://www.w3.org/2000/svg">
    <defs>
        <linearGradient id="paint0_linear" x1="13.8205" y1="34.9487" x2="13.8205" y2="-1.66649e-05"
            gradientUnits="userSpaceOnUse">
            <stop stop-color="#F4F7FA" />
            <stop offset="1" stop-color="#F4F7FA" />
        </linearGradient>
    </defs>
    <path
        d="M26.8353 10.5441L14.4801 0.236979C14.098 -0.078993 13.543 -0.078993 13.1609 0.236979L0.805699 10.5441C0.473893 10.8201 0.349243 11.274 0.498054 11.68C0.644875 12.0849 1.03098 12.3549 1.46533 12.3549H6.41023L2.51099 33.7418C2.4567 34.0408 2.53913 34.3478 2.73421 34.5807C2.92928 34.8137 3.21888 34.9487 3.52453 34.9487H24.1165C24.4222 34.9487 24.7118 34.8137 24.9069 34.5807C25.1019 34.3478 25.1844 34.0408 25.1301 33.7418L21.2308 12.3549H26.1757C26.6101 12.3549 26.9962 12.0849 27.143 11.68C27.2918 11.274 27.1671 10.8201 26.8353 10.5441Z"
        fill="url(#paint0_linear)" />
    <ellipse cx="13.8205" cy="26.6228" rx="5.20512" ry="5.35158" fill="#9D27B0" />
    <path
        d="M13.3193 23.7489C13.5023 23.2995 14.1386 23.2995 14.3216 23.7489L14.7764 24.8656C14.854 25.0562 15.0331 25.1863 15.2383 25.2012L16.4409 25.2887C16.9248 25.3238 17.1214 25.929 16.7506 26.2419L15.8291 27.0195C15.6718 27.1523 15.6035 27.3627 15.6527 27.5626L15.9411 28.7333C16.0572 29.2044 15.5424 29.5784 15.1302 29.3225L14.1059 28.6864C13.9311 28.5778 13.7098 28.5778 13.535 28.6864L12.5107 29.3225C12.0985 29.5784 11.5837 29.2044 11.6998 28.7333L11.9882 27.5626C12.0375 27.3627 11.9691 27.1523 11.8118 27.0195L10.8903 26.2419C10.5195 25.929 10.7161 25.3238 11.2001 25.2887L12.4026 25.2012C12.6079 25.1863 12.7869 25.0562 12.8645 24.8656L13.3193 23.7489Z"
        fill="#FFDC00" />
    <path d="M13.8205 18.2744V19.9869M11.322 18.7025V20.4151M16.3189 18.7025V20.4151"
        stroke="#6A1B9A" stroke-width="1.48718" stroke-linecap="round" />
</svg>
