<svg width="17" height="17" viewBox="0 0 17 17" fill="none" xmlns="http://www.w3.org/2000/svg">
<path d="M4.8822 15.983H1.93549V11.9667C1.93549 11.8724 2.01199 11.7959 2.10632 11.7959H4.71133C4.8057 11.7959 4.88216 11.8724 4.88216 11.9667V15.983H4.8822Z" fill="white"/>
<path d="M4.88211 11.9669V15.8036H4.04742V11.9669C4.04742 11.8722 3.97088 11.796 3.87659 11.796H4.71128C4.80558 11.796 4.88211 11.8722 4.88211 11.9669Z" fill="white"/>
<path d="M9.97332 15.983H7.02661V9.16393C7.02661 9.06957 7.10311 8.9931 7.19744 8.9931H9.80246C9.89682 8.9931 9.97329 9.0696 9.97329 9.16393V15.983H9.97332Z" fill="white"/>
<path d="M9.9733 9.16406V15.8036H9.1386V9.16406C9.1386 9.06939 9.06207 8.99323 8.96777 8.99323H9.80247C9.89676 8.99323 9.9733 9.06943 9.9733 9.16406Z" fill="white"/>
<path d="M15.0645 15.983H12.1178V5.91949C12.1178 5.82512 12.1943 5.74866 12.2886 5.74866H14.8936C14.988 5.74866 15.0645 5.82516 15.0645 5.91949V15.983H15.0645Z" fill="white"/>
<path d="M15.0645 5.91967V15.8036H14.2298V5.91967C14.2298 5.82501 14.1533 5.74884 14.059 5.74884H14.8937C14.988 5.74884 15.0645 5.82501 15.0645 5.91967Z" fill="white"/>
<path d="M3.74449 6.69544L4.14585 7.50868C4.17218 7.56204 4.22308 7.59903 4.28198 7.60759L5.17943 7.73802C5.48649 7.78264 5.60908 8.15996 5.38688 8.37654L4.7375 9.00956C4.6949 9.0511 4.67544 9.11093 4.6855 9.1696L4.8388 10.0634C4.89126 10.3692 4.57028 10.6024 4.29563 10.458L3.49291 10.036C3.44025 10.0083 3.37733 10.0083 3.32464 10.036L2.52192 10.458C2.24729 10.6024 1.92632 10.3692 1.97875 10.0634L2.13205 9.1696C2.14211 9.11096 2.12265 9.0511 2.08005 9.00956L1.43066 8.37654C1.20847 8.15996 1.33109 7.78264 1.63812 7.73802L2.53556 7.60759C2.59447 7.59903 2.64537 7.56204 2.6717 7.50868L3.07306 6.69544C3.21042 6.41719 3.60716 6.41719 3.74449 6.69544Z" fill="white"/>
<path d="M4.73756 9.00958C4.69463 9.05125 4.67567 9.11062 4.68577 9.16935L4.8386 10.0636C4.89103 10.3693 4.57019 10.6024 4.29546 10.4577L3.49275 10.0359C3.44032 10.0081 3.37717 10.0081 3.32474 10.0359L2.52202 10.4577C2.2473 10.6024 1.92646 10.3693 1.97888 10.0636L2.01361 9.85965C2.03194 9.85397 2.05024 9.84577 2.06856 9.83627C2.1866 9.77415 2.30467 9.71199 2.42274 9.64984C2.60061 9.5562 2.77865 9.46058 2.96734 9.39016C3.12157 9.33258 3.28665 9.31004 3.45048 9.30386C3.62735 9.29722 3.88873 9.41961 3.99826 9.21614C4.03197 9.15355 4.02144 9.06606 4.03339 8.99806C4.08894 8.68193 4.27006 8.40064 4.50255 8.17834C4.64838 8.03939 4.78906 7.89522 4.9333 7.75464C4.94844 7.7395 4.96235 7.72432 4.97371 7.70789L5.1796 7.7382C5.48653 7.78243 5.60905 8.16008 5.38675 8.3767L4.73756 9.00958Z" fill="white"/>
<path d="M8.83564 3.57752L9.237 4.39076C9.26333 4.44412 9.31423 4.48111 9.37313 4.48967L10.2706 4.6201C10.5776 4.66472 10.7002 5.04204 10.4781 5.25862L9.82868 5.89164C9.78608 5.93318 9.76662 5.99301 9.77669 6.05168L9.92998 6.94551C9.98245 7.25131 9.66147 7.48453 9.38682 7.34013L8.5841 6.91812C8.53144 6.89042 8.46852 6.89042 8.41582 6.91812L7.6131 7.34013C7.33848 7.4845 7.01751 7.25131 7.06993 6.94551L7.22323 6.05168C7.23329 5.99304 7.21384 5.93318 7.17124 5.89164L6.52185 5.25862C6.29965 5.04204 6.42227 4.66472 6.7293 4.6201L7.62675 4.48967C7.68565 4.48111 7.73655 4.44412 7.76288 4.39076L8.16424 3.57752C8.30157 3.29927 8.69835 3.29927 8.83564 3.57752Z" fill="white"/>
<path d="M9.82875 5.8916C9.78582 5.93327 9.76686 5.99264 9.77695 6.05137L9.92979 6.94567C9.98222 7.25133 9.66137 7.48439 9.38665 7.33975L8.58393 6.91788C8.53151 6.89008 8.46835 6.89008 8.41592 6.91788L7.61321 7.33975C7.33848 7.48439 7.01764 7.25133 7.07007 6.94567L7.1048 6.74167C7.12313 6.73599 7.14142 6.72779 7.15975 6.71829C7.27779 6.65617 7.39586 6.59401 7.51393 6.53186C7.6918 6.43822 7.86983 6.3426 8.05853 6.27217C8.21275 6.2146 8.37784 6.19206 8.54167 6.18588C8.71854 6.17924 8.97991 6.30163 9.08945 6.09816C9.12315 6.03557 9.11263 5.94808 9.12458 5.88008C9.18013 5.56395 9.36125 5.28266 9.59374 5.06036C9.73957 4.9214 9.88025 4.77724 10.0245 4.63665C10.0396 4.62151 10.0535 4.60634 10.0649 4.5899L10.2708 4.62022C10.5777 4.66445 10.7002 5.0421 10.4779 5.25872L9.82875 5.8916Z" fill="white"/>
<path d="M13.9268 0.246166L14.3282 1.05941C14.3545 1.11277 14.4054 1.14976 14.4643 1.15832L15.3618 1.28874C15.6688 1.33337 15.7914 1.71069 15.5692 1.92727L14.9198 2.56022C14.8772 2.60176 14.8578 2.66159 14.8678 2.72026L15.0211 3.61409C15.0736 3.91989 14.7526 4.15311 14.4779 4.00871L13.6752 3.5867C13.6226 3.55901 13.5596 3.55901 13.5069 3.5867L12.7042 4.00871C12.4296 4.15308 12.1086 3.91989 12.1611 3.61409L12.3144 2.72026C12.3244 2.66163 12.305 2.60176 12.2624 2.56022L11.613 1.92721C11.3908 1.71062 11.5134 1.3333 11.8204 1.28868L12.7179 1.15826C12.7768 1.14969 12.8277 1.1127 12.854 1.05934L13.2554 0.246099C13.3928 -0.0320767 13.7895 -0.0320767 13.9268 0.246166Z" fill="white"/>
<path d="M14.9199 2.56024C14.877 2.60191 14.858 2.66128 14.8681 2.72001L15.021 3.61431C15.0734 3.91997 14.7526 4.15303 14.4778 4.00839L13.6751 3.58652C13.6227 3.55872 13.5595 3.55872 13.5071 3.58652L12.7044 4.00839C12.4297 4.15303 12.1088 3.91997 12.1613 3.61431L12.196 3.41031C12.2143 3.40463 12.2326 3.39643 12.2509 3.38693C12.369 3.32481 12.487 3.26265 12.6051 3.2005C12.783 3.10686 12.961 3.01124 13.1497 2.94081C13.3039 2.88324 13.469 2.8607 13.6329 2.85452C13.8097 2.84788 14.0711 2.97027 14.1806 2.7668C14.2143 2.70421 14.2038 2.61672 14.2158 2.54872C14.2713 2.23259 14.4524 1.9513 14.6849 1.729C14.8308 1.59005 14.9714 1.44588 15.1157 1.30529C15.1308 1.29015 15.1447 1.27498 15.1561 1.25854L15.362 1.28886C15.6689 1.33309 15.7914 1.71074 15.5691 1.92736L14.9199 2.56024Z" fill="white"/>
<path d="M16.8292 16.9624H0.17083C0.0764668 16.9624 0 16.8859 0 16.7916V15.9744C0 15.8801 0.0765 15.8036 0.17083 15.8036H16.8291C16.9235 15.8036 17 15.8801 17 15.9744V16.7916C17 16.8859 16.9235 16.9624 16.8292 16.9624Z" fill="white"/>
</svg>
