<svg width="17" height="17" viewBox="0 0 17 17" fill="none" xmlns="http://www.w3.org/2000/svg">
<path d="M16.5854 15.3411H15.1212V5.99505C15.1212 5.76645 14.9352 5.58044 14.7066 5.58044H13.7606C13.6232 5.58044 13.5118 5.69181 13.5118 5.8292C13.5118 5.9666 13.6232 6.07796 13.7606 6.07796H14.6237V15.3411H12.2607V6.07796H12.5909C12.7283 6.07796 12.8396 5.9666 12.8396 5.8292C12.8396 5.69181 12.7283 5.58044 12.5909 5.58044H12.1778C11.9492 5.58044 11.7632 5.76645 11.7632 5.99505V15.3411H10.179V9.1445C10.179 8.9159 9.99304 8.72989 9.76444 8.72989H7.23562C7.00702 8.72989 6.82102 8.9159 6.82102 9.1445V15.3411H5.23683V11.8653C5.23683 11.6367 5.05083 11.4507 4.82222 11.4507H2.29344C2.06484 11.4507 1.87883 11.6367 1.87883 11.8653V12.9777C1.87883 13.1151 1.9902 13.2265 2.12759 13.2265C2.26498 13.2265 2.37635 13.1151 2.37635 12.9777V11.9482H4.73928V15.3411H2.37635V14.1346C2.37635 13.9972 2.26498 13.8858 2.12759 13.8858C1.9902 13.8858 1.87883 13.9972 1.87883 14.1346V15.3411H0.414607C0.186004 15.3411 0 15.5271 0 15.7557V16.549C0 16.7776 0.186004 16.9636 0.414607 16.9636H16.5854C16.814 16.9636 17 16.7776 17 16.549V15.7557C17 15.5271 16.814 15.3411 16.5854 15.3411ZM7.31853 9.22744H9.6815V15.3411H7.31853V9.22744ZM16.5025 16.4661H0.497549V15.8386H2.12762H4.98811H7.06981H9.93029H12.012H14.8724H16.5025V16.4661H16.5025Z" fill="white" fill-opacity="0.6"/>
<path d="M2.06673 9.14586L1.92442 9.97558C1.88475 10.2069 1.97808 10.4363 2.16797 10.5743C2.27528 10.6523 2.40082 10.6919 2.52719 10.6919C2.62448 10.6919 2.72226 10.6684 2.81264 10.6209L3.55775 10.2292L4.30286 10.6209C4.51058 10.7301 4.75758 10.7123 4.94753 10.5743C5.13742 10.4363 5.23076 10.2069 5.19108 9.97558L5.04877 9.14586L5.65157 8.55827C5.81965 8.39444 5.87901 8.15399 5.8065 7.93076C5.73395 7.7075 5.54463 7.54786 5.31234 7.5141L4.47927 7.39304L4.10673 6.63816C4.00284 6.42766 3.7925 6.29694 3.55775 6.29694C3.32304 6.29694 3.1127 6.42769 3.00884 6.63816L2.6363 7.39304L1.8032 7.5141C1.57091 7.54786 1.38159 7.70747 1.30904 7.93076C1.23652 8.15402 1.29585 8.39444 1.46393 8.55823L2.06673 9.14586ZM1.78221 8.08449C1.78885 8.06411 1.8111 8.01573 1.87475 8.00647L2.74587 7.87986C2.88409 7.85984 3.00352 7.77305 3.06538 7.64777L3.45499 6.85837C3.48344 6.80069 3.53634 6.79445 3.55775 6.79445C3.57917 6.79445 3.63206 6.80066 3.66055 6.85837L4.05015 7.64774C4.11198 7.77301 4.23141 7.85981 4.3696 7.87986L5.24078 8.00647C5.30443 8.01573 5.32668 8.06411 5.33332 8.08449C5.33996 8.10488 5.35039 8.15711 5.3043 8.20197L4.67397 8.81642C4.5739 8.91387 4.52828 9.05432 4.55192 9.19198L4.70074 10.0596C4.71159 10.123 4.67245 10.1592 4.65511 10.1718C4.63775 10.1844 4.59126 10.2105 4.53442 10.1805L3.75521 9.77081C3.69339 9.73831 3.62555 9.72207 3.55775 9.72207C3.48995 9.72207 3.42212 9.73834 3.36029 9.77081L2.58108 10.1805C2.52414 10.2104 2.47772 10.1844 2.46039 10.1718C2.44306 10.1592 2.40391 10.123 2.41477 10.0596L2.56358 9.19202C2.58722 9.05432 2.54157 8.91391 2.44159 8.81646L1.8112 8.202C1.76515 8.15711 1.77557 8.10488 1.78221 8.08449Z" fill="white" fill-opacity="0.6"/>
<path d="M7.00892 6.11919L6.86662 6.94894C6.82694 7.18026 6.92024 7.40966 7.11013 7.54762C7.21744 7.62558 7.34298 7.66519 7.46938 7.66519C7.56667 7.66519 7.66445 7.64172 7.75483 7.59424L8.49994 7.20251L9.24505 7.59424C9.45281 7.70351 9.69984 7.68562 9.88979 7.54762C10.0797 7.40966 10.173 7.18023 10.1333 6.94894L9.99096 6.11919L10.5938 5.5316C10.7619 5.36777 10.8212 5.12731 10.7487 4.90409C10.6762 4.68083 10.4868 4.52122 10.2545 4.48746L9.42146 4.3664L9.04889 3.61149C8.945 3.40102 8.73466 3.27026 8.49994 3.27026C8.26523 3.27026 8.05489 3.40102 7.951 3.61149L7.57846 4.3664L6.74536 4.48746C6.5131 4.52122 6.32374 4.68083 6.2512 4.90409C6.17865 5.12728 6.23798 5.36777 6.40609 5.53163L7.00892 6.11919ZM6.72437 5.05782C6.73101 5.03743 6.75326 4.98909 6.81691 4.97983L7.68816 4.85322C7.82635 4.8331 7.94572 4.74638 8.00754 4.62113L8.39715 3.8317C8.4256 3.77402 8.47849 3.76781 8.49991 3.76781C8.52133 3.76781 8.57422 3.77402 8.60267 3.8317L8.99235 4.62123C9.05414 4.74641 9.17354 4.8331 9.31176 4.85322L10.1829 4.97983C10.2466 4.98909 10.2688 5.0375 10.2755 5.05785C10.2821 5.07824 10.2925 5.13044 10.2465 5.17533L9.61607 5.78982C9.51609 5.8873 9.4705 6.02765 9.49408 6.16534L9.64289 7.03301C9.65375 7.09639 9.61461 7.13252 9.59727 7.1451C9.57994 7.15765 9.53346 7.18382 9.47655 7.1538L8.69737 6.74417C8.63558 6.71167 8.56774 6.6954 8.49991 6.6954C8.43211 6.6954 8.36428 6.71167 8.30245 6.74414L7.52324 7.1538C7.46626 7.18378 7.41985 7.15765 7.40255 7.1451C7.38521 7.13252 7.3461 7.09639 7.35696 7.03301L7.50578 6.16534C7.52938 6.02772 7.48379 5.88733 7.38375 5.78978L6.75336 5.17536C6.70734 5.13044 6.71777 5.07824 6.72437 5.05782Z" fill="white" fill-opacity="0.6"/>
<path d="M11.9512 2.8853L11.8089 3.71502C11.7691 3.94634 11.8625 4.17578 12.0524 4.31374C12.2423 4.4517 12.4893 4.46953 12.6971 4.36035L13.4422 3.96862L14.1873 4.36035C14.2777 4.40783 14.3755 4.43131 14.4728 4.43131C14.5992 4.43131 14.7247 4.3917 14.832 4.31374C15.0219 4.17578 15.1152 3.94634 15.0755 3.71502L14.9332 2.8853L15.536 2.29771C15.7041 2.13388 15.7634 1.89343 15.6909 1.67024C15.6184 1.44698 15.4291 1.28734 15.1968 1.25357L14.3637 1.13248L13.9911 0.377605C13.8872 0.167131 13.6769 0.036377 13.4422 0.036377C13.2075 0.036377 12.9971 0.167131 12.8932 0.377605L12.5207 1.13248L11.6876 1.25357C11.4553 1.2873 11.266 1.44695 11.1934 1.6702C11.1209 1.89339 11.1803 2.13388 11.3483 2.29771L11.9512 2.8853ZM11.6666 1.82397C11.6733 1.80358 11.6955 1.7552 11.7592 1.74594L12.6303 1.61934C12.7686 1.59928 12.8881 1.51252 12.9498 1.38725L13.3394 0.597842C13.3679 0.540168 13.4208 0.533959 13.4422 0.533959C13.4636 0.533959 13.5165 0.540168 13.5449 0.597842L13.9346 1.38728C13.9964 1.51252 14.1159 1.59931 14.254 1.61934L15.1252 1.74594C15.1889 1.7552 15.2111 1.80361 15.2178 1.82397C15.2244 1.84435 15.2348 1.89655 15.1887 1.94144L14.5583 2.55596C14.4584 2.65345 14.4127 2.7938 14.4363 2.93149L14.5851 3.79912C14.596 3.86254 14.5568 3.89866 14.5395 3.91125C14.5222 3.92387 14.4757 3.94993 14.4188 3.91995L13.6396 3.51032C13.5778 3.47781 13.51 3.46154 13.4422 3.46154C13.3743 3.46154 13.3065 3.47781 13.2447 3.51029L12.4655 3.91995C12.4086 3.94993 12.3621 3.9238 12.3448 3.91125C12.3275 3.89863 12.2883 3.86254 12.2992 3.79912L12.448 2.93156C12.4716 2.7939 12.426 2.65351 12.326 2.55593L11.6956 1.94144C11.6495 1.89655 11.66 1.84432 11.6666 1.82397Z" fill="white" fill-opacity="0.6"/>
</svg>
