<svg width="31" height="36" viewBox="0 0 31 36" fill="none" xmlns="http://www.w3.org/2000/svg">
<path d="M28.0801 28.2056C28.0763 28.2076 28.0722 28.2097 28.0678 28.2117L23.1927 30.4861C23.2451 30.7527 23.268 31.0238 23.2607 31.2953C23.253 31.576 23.0204 31.7997 22.7361 31.7997C22.7311 31.7997 22.7261 31.7997 22.7211 31.7997L15.5862 31.6058C15.2961 31.598 15.0675 31.3595 15.0754 31.073C15.0833 30.7865 15.3251 30.5608 15.6149 30.5686L22.1734 30.7469C21.9559 29.4917 20.8722 28.5622 19.5833 28.5251L15.243 28.4073C14.3858 28.383 13.5453 28.1686 12.7836 27.7799L12.342 27.5542C10.173 26.4382 7.5595 26.5835 5.53121 27.933L5.35742 34.1682L6.10327 33.7738C6.84443 33.3802 7.7116 33.2864 8.52163 33.5124L15.8875 35.5542C17.3071 35.8413 18.7824 35.6786 20.1029 35.0888L30.3077 28.5703C29.7253 27.9816 28.8236 27.8337 28.0801 28.2056Z" fill="#F4F7FA"/>
<path d="M0.564087 35.2511L0.822862 25.9742L4.53246 26.0752L4.27368 35.3521L0.564087 35.2511Z" fill="#F4F7FA"/>
<circle cx="15.8077" cy="15.2436" r="9.29486" fill="#9D27B0"/>
<path d="M14.9128 10.252C15.2396 9.4715 16.3758 9.47151 16.7026 10.252L17.5147 12.1915C17.6534 12.5226 17.973 12.7485 18.3396 12.7744L20.487 12.9263C21.3511 12.9874 21.7023 14.0385 21.0401 14.582L19.3946 15.9326C19.1137 16.1631 18.9916 16.5287 19.0795 16.8757L19.5946 18.9091C19.8019 19.7274 18.8826 20.377 18.1466 19.9324L16.3175 18.8276C16.0053 18.639 15.6101 18.639 15.2979 18.8276L13.4688 19.9324C12.7328 20.377 11.8135 19.7274 12.0208 18.9091L12.5359 16.8757C12.6238 16.5287 12.5017 16.1631 12.2208 15.9326L10.5753 14.582C9.91313 14.0385 10.2642 12.9874 11.1284 12.9263L13.2758 12.7744C13.6424 12.7485 13.962 12.5226 14.1007 12.1915L14.9128 10.252Z" fill="#FFDC00"/>
<path d="M15.8077 0.74353V3.71789M11.3462 1.48712V4.46148M20.2692 1.48712V4.46148" stroke="#6A1B9A" stroke-width="1.48718" stroke-linecap="round"/>
</svg>
