<svg width="37" height="39" viewBox="0 0 37 39" fill="none" xmlns="http://www.w3.org/2000/svg">
<path d="M1.23713 26.7716C1.196 26.7716 1.15648 26.7706 1.11855 26.7689C0.823116 26.7558 0.589722 26.5214 0.589722 26.2341V26.2316C0.589722 25.9403 0.829669 25.7065 1.12936 25.6966C1.64125 25.6797 2.42962 25.4994 3.09885 24.6842C3.13635 24.6385 3.17051 24.593 3.20167 24.5477C2.06914 24.3113 1.38673 23.9354 1.12127 23.4039C0.963933 23.089 0.882022 22.5781 1.38492 21.9325C1.73167 21.4872 2.23157 21.2706 2.7567 21.3389C3.42315 21.4253 4.05132 21.9583 4.35714 22.6969C4.4958 23.0317 4.55944 23.3768 4.55024 23.7187C4.86792 23.7506 5.19089 23.7708 5.50299 23.7774C5.79111 23.7835 6.03733 24.0032 6.04081 24.2832C6.04444 24.5739 5.80233 24.8061 5.50361 24.802C5.47594 24.8015 4.96656 24.7911 4.30806 24.7188C4.20928 24.9282 4.0808 25.1308 3.92319 25.3228C2.92436 26.5395 1.88482 26.7716 1.23713 26.7716ZM2.56416 22.3504C2.47409 22.3504 2.35489 22.3844 2.2255 22.5504C2.14387 22.6553 2.01511 22.8473 2.0697 22.9567C2.19274 23.2033 2.7597 23.415 3.4893 23.5621C3.4764 23.3508 3.4214 23.1814 3.37902 23.0791C3.19909 22.6447 2.8596 22.3856 2.61721 22.3541C2.60097 22.352 2.58319 22.3504 2.56416 22.3504Z" fill="#EBD2FD"/>
<path d="M35.2648 23.8451L33.7813 23.3834C33.4262 23.2729 33.1505 23.0006 33.0387 22.6551C31.3315 17.3809 24.9921 14.9587 18.611 14.9587C11.1456 14.9587 5.09369 18.2731 5.09369 25.5924C5.09369 29.8108 7.22329 32.7654 10.5135 34.4718C10.5945 34.5138 10.652 34.5884 10.6694 34.6759L11.4065 38.3957C11.4748 38.7461 11.79 38.9998 12.1571 38.9998H14.6463C15.0134 38.9998 15.3285 38.7461 15.3968 38.3957L15.7998 36.3276C15.8295 36.175 15.9759 36.0722 16.1346 36.0901C16.9375 36.1807 17.7651 36.2261 18.611 36.2261C19.7417 36.2261 20.8709 36.145 21.9735 35.9831C22.1355 35.9593 22.2881 36.0628 22.3187 36.2192L22.7427 38.3957C22.811 38.7461 23.1262 38.9998 23.4933 38.9998H25.9825C26.3496 38.9998 26.6647 38.7461 26.7331 38.3957L27.4987 34.4572C27.516 34.3683 27.5748 34.2925 27.6575 34.2508C29.6114 33.2638 31.2279 31.9059 32.2588 30.1749C32.3962 29.9442 32.6135 29.7684 32.8747 29.6871L35.265 28.9432C35.8709 28.7547 36.2821 28.2073 36.2821 27.5892V25.1991C36.2819 24.581 35.8708 24.0336 35.2648 23.8451Z" fill="#F9F4FA"/>
<path d="M36.0955 24.5067C36.031 24.3945 35.9517 24.2908 35.8587 24.1993C35.8566 24.1973 35.8549 24.1951 35.8529 24.1932C35.6918 24.0368 35.492 23.9156 35.2648 23.8449L34.165 23.5027V24.7596C34.165 26.3212 33.1408 27.7092 31.6187 28.2108C30.9265 28.4261 30.3281 28.8523 29.8895 29.4154C29.3525 30.105 28.7145 30.7247 27.9954 31.2747C27.1476 31.923 26.5758 32.8509 26.4123 33.887C26.2958 34.6258 26.2055 35.4141 26.1479 35.9727C26.1036 36.4024 25.7319 36.7296 25.2875 36.7296H23.4932C23.1261 36.7296 22.8109 36.4759 22.7426 36.1255L22.3185 33.949C22.2881 33.7926 22.1354 33.689 21.9734 33.7129C20.8709 33.8747 19.7417 33.9559 18.611 33.9559C17.765 33.9559 16.9374 33.9104 16.1345 33.8199C15.9757 33.802 15.8294 33.9048 15.7997 34.0574L15.3967 36.1255C15.3285 36.4759 15.0132 36.7296 14.6461 36.7296H12.157C11.7899 36.7296 11.4747 36.4759 11.4064 36.1255L10.6693 32.4057C10.6519 32.3182 10.5943 32.2437 10.5134 32.2017C7.52356 30.651 5.49252 28.0694 5.14648 24.4457C5.14648 24.4458 5.14648 24.4459 5.14648 24.4459C5.13825 24.5349 5.131 24.6245 5.12466 24.7147C5.12452 24.7164 5.12445 24.7182 5.12431 24.72C5.12368 24.7289 5.12312 24.7378 5.12257 24.7468C5.11706 24.8278 5.11225 24.9095 5.10828 24.9915C5.10667 25.0256 5.10556 25.0601 5.10423 25.0943C5.10172 25.1569 5.09921 25.2195 5.09761 25.2828C5.09517 25.3853 5.09357 25.4884 5.09357 25.5925C5.09357 26.1198 5.12682 26.6274 5.19151 27.1152C5.2707 27.7129 5.39751 28.2806 5.56746 28.8192C5.57673 28.8486 5.58642 28.8778 5.59597 28.9071C5.61961 28.9795 5.64414 29.0517 5.66952 29.1235C5.67963 29.1522 5.68967 29.181 5.70005 29.2094C5.76997 29.4011 5.84561 29.5889 5.92682 29.7728C5.93547 29.7923 5.94404 29.8118 5.95276 29.8312C5.99277 29.9201 6.03397 30.0083 6.07663 30.0954C6.08367 30.1098 6.09106 30.1241 6.09817 30.1384C6.13791 30.2185 6.17897 30.298 6.22107 30.3771C6.22832 30.3906 6.23536 30.4043 6.24261 30.4179C6.28848 30.5027 6.33575 30.5864 6.38413 30.6694C6.39465 30.6874 6.40532 30.7054 6.41592 30.7233C6.57256 30.9876 6.74195 31.2425 6.92348 31.4878C6.94084 31.5112 6.95855 31.5344 6.97611 31.5576C7.02017 31.616 7.06493 31.6738 7.11038 31.7311C7.12829 31.7536 7.14607 31.7763 7.16412 31.7986C7.22561 31.8745 7.28786 31.9499 7.35172 32.0238C7.35227 32.0245 7.3529 32.0252 7.35346 32.0258C7.41739 32.0999 7.48291 32.1726 7.54921 32.2447C7.56929 32.2665 7.58978 32.2881 7.61007 32.3098C7.65956 32.3626 7.70975 32.4149 7.7605 32.4665C7.781 32.4874 7.80135 32.5084 7.82206 32.5291C7.89156 32.5986 7.9619 32.6675 8.0337 32.7351C8.03384 32.7352 8.03405 32.7354 8.03419 32.7356C8.11422 32.8109 8.19564 32.885 8.27846 32.9578C8.44402 33.1036 8.61509 33.2444 8.79139 33.3803C8.96769 33.5163 9.14922 33.6473 9.33583 33.7735C9.42911 33.8366 9.52363 33.8984 9.61942 33.9591C9.70565 34.0136 9.79314 34.0669 9.88132 34.1196C9.9067 34.1347 9.93228 34.1496 9.9578 34.1645C10.0244 34.2036 10.0914 34.242 10.1588 34.2799C10.1855 34.2948 10.2121 34.31 10.2389 34.3247C10.3296 34.3747 10.4209 34.424 10.5134 34.472C10.5336 34.4825 10.5524 34.495 10.5694 34.5093C10.5848 34.5221 10.5982 34.5368 10.6106 34.5521C10.6143 34.5567 10.6174 34.5615 10.6207 34.5663C10.6292 34.5782 10.6367 34.5907 10.6433 34.6038C10.6459 34.609 10.6486 34.614 10.6509 34.6194C10.6587 34.6376 10.6653 34.6564 10.6692 34.6761L11.4063 38.3959C11.4148 38.4397 11.4272 38.482 11.4431 38.5225C11.4511 38.5427 11.4599 38.5625 11.4695 38.5818C11.4791 38.6011 11.4896 38.6199 11.5008 38.6381C11.512 38.6564 11.524 38.6742 11.5368 38.6913C11.5495 38.7086 11.563 38.7252 11.5773 38.7413C11.5934 38.7595 11.6105 38.7766 11.6283 38.7932C11.6339 38.7984 11.6399 38.8033 11.6456 38.8083C11.6584 38.8196 11.6715 38.8304 11.685 38.8408C11.6919 38.846 11.6988 38.8511 11.7057 38.8561C11.7197 38.866 11.734 38.8754 11.7485 38.8843C11.7551 38.8884 11.7616 38.8926 11.7683 38.8965C11.7894 38.9086 11.8111 38.9201 11.8334 38.9302C11.8338 38.9304 11.8341 38.9305 11.8344 38.9307C11.8568 38.9408 11.8799 38.9496 11.9033 38.9576C11.9107 38.9601 11.9183 38.9622 11.9257 38.9645C11.9424 38.9697 11.9593 38.9744 11.9765 38.9784C11.9851 38.9804 11.9938 38.9823 12.0026 38.9841C12.0199 38.9875 12.0375 38.9903 12.0552 38.9926C12.0632 38.9937 12.0712 38.9949 12.0792 38.9957C12.1047 38.9982 12.1305 38.9999 12.1566 38.9999C12.1567 38.9999 12.1568 38.9999 12.157 38.9999H14.6461C14.7609 38.9999 14.8705 38.9752 14.9691 38.9304C15.0086 38.9125 15.0463 38.8914 15.0818 38.8674C15.1173 38.8434 15.1507 38.8165 15.1816 38.7871C15.2279 38.7429 15.2685 38.6929 15.3022 38.6381C15.3471 38.565 15.3796 38.4835 15.3967 38.3958L15.7996 36.3277V36.3276C15.8029 36.3104 15.8082 36.2941 15.8144 36.2783C15.8162 36.2736 15.8183 36.2692 15.8204 36.2646C15.8256 36.2532 15.8313 36.2423 15.8378 36.2318C15.8404 36.2276 15.8428 36.2234 15.8456 36.2193C15.855 36.2057 15.8651 36.1926 15.8766 36.1809C15.9078 36.1488 15.9468 36.1249 15.9895 36.109C15.9936 36.1074 15.9976 36.1059 16.0018 36.1046C16.0121 36.1013 16.0223 36.0984 16.033 36.0961C16.0411 36.0943 16.0493 36.0931 16.0576 36.092C16.0656 36.0909 16.0734 36.0896 16.0816 36.0891C16.0989 36.0881 16.1166 36.0882 16.1344 36.0902C16.2682 36.1053 16.4029 36.1187 16.5381 36.1313C16.5719 36.1345 16.6058 36.1375 16.6397 36.1405C16.7748 36.1524 16.9104 36.1636 17.0467 36.173C17.0474 36.1731 17.048 36.1731 17.0487 36.1731C17.1851 36.1825 17.3223 36.1903 17.4598 36.1972C17.4945 36.1989 17.5291 36.2006 17.5638 36.2022C17.702 36.2085 17.8405 36.214 17.9799 36.2178C18.1889 36.2235 18.3993 36.2263 18.6108 36.2263C18.8934 36.2263 19.176 36.2212 19.4581 36.2111C19.6025 36.2059 19.7468 36.1993 19.891 36.1915C19.9057 36.1907 19.9203 36.1895 19.935 36.1887C20.0659 36.1813 20.1967 36.1731 20.3273 36.1635C20.3304 36.1633 20.3334 36.163 20.3364 36.1628C20.6228 36.1416 20.9082 36.1152 21.1923 36.0836C21.1932 36.0835 21.194 36.0834 21.1949 36.0833C21.3248 36.0688 21.4544 36.0533 21.5838 36.0367C21.6463 36.0287 21.7086 36.0196 21.7709 36.0111C21.8395 36.0016 21.9083 35.9928 21.9767 35.9828C22.1153 35.9624 22.2462 36.0382 22.299 36.1589C22.2997 36.1605 22.3007 36.1618 22.3014 36.1634C22.3088 36.1812 22.3145 36.1999 22.3183 36.2194L22.5303 37.3076L22.7423 38.3959C22.8106 38.7463 23.1258 39 23.4929 39H25.9821C25.9822 39 25.9823 39 25.9825 39C26.0086 39 26.0344 38.9984 26.0599 38.9958C26.068 38.995 26.0758 38.9937 26.0838 38.9927C26.1016 38.9904 26.1191 38.9876 26.1365 38.9842C26.1452 38.9824 26.1539 38.9805 26.1625 38.9785C26.1796 38.9744 26.1966 38.9697 26.2132 38.9645C26.2207 38.9622 26.2283 38.9601 26.2357 38.9576C26.2592 38.9496 26.2824 38.9407 26.3048 38.9305C26.305 38.9305 26.305 38.9304 26.3052 38.9304C26.3276 38.9202 26.3494 38.9086 26.3706 38.8965C26.3773 38.8926 26.3837 38.8884 26.3904 38.8843C26.405 38.8753 26.4193 38.866 26.4332 38.856C26.4402 38.8511 26.447 38.846 26.4538 38.8408C26.4674 38.8305 26.4805 38.8196 26.4934 38.8083C26.4992 38.8033 26.505 38.7985 26.5107 38.7932C26.5285 38.7767 26.5456 38.7595 26.5617 38.7414C26.568 38.7342 26.5736 38.7266 26.5796 38.7192C26.6007 38.6935 26.6206 38.6667 26.6381 38.6382C26.6606 38.6017 26.6799 38.563 26.6958 38.5225C26.7117 38.482 26.724 38.4398 26.7326 38.3959L26.9004 37.5329L27.0747 36.636L27.1841 36.0735L27.4982 34.4574L27.5264 34.3125C27.5779 34.2876 27.5987 34.2776 27.6503 34.2528C27.6523 34.2534 27.6535 34.2531 27.6545 34.2526C27.6554 34.2521 27.6561 34.2514 27.657 34.251C27.7168 34.2208 27.7751 34.1892 27.8342 34.1584C27.8959 34.1261 27.9584 34.0945 28.0194 34.0615C28.0724 34.0329 28.124 34.0029 28.1764 33.9737C28.2423 33.937 28.3088 33.9008 28.3739 33.8632C28.4274 33.8322 28.4795 33.7999 28.5324 33.7683C28.5948 33.731 28.6579 33.6944 28.7194 33.6563C28.7746 33.6221 28.8283 33.5866 28.8827 33.5517C28.9405 33.5147 28.9991 33.4783 29.0561 33.4406C29.1099 33.4049 29.1623 33.3678 29.2153 33.3314C29.2714 33.293 29.3281 33.2554 29.3833 33.2162C29.4348 33.1797 29.4846 33.1419 29.5353 33.1047C29.5906 33.0642 29.6466 33.0243 29.7009 32.983C29.7502 32.9456 29.7977 32.9069 29.8462 32.8688C29.9002 32.8264 29.9552 32.7845 30.0083 32.7412C30.0572 32.7014 30.1044 32.6602 30.1525 32.6196C30.2035 32.5767 30.2553 32.5344 30.3053 32.4907C30.3519 32.4499 30.3968 32.4077 30.4427 32.3662C30.4923 32.3213 30.5428 32.277 30.5915 32.2313C30.636 32.1895 30.6786 32.1464 30.7222 32.1039C30.7704 32.0571 30.8193 32.0109 30.8664 31.9633C30.9093 31.9199 30.9504 31.8751 30.9923 31.8311C31.0382 31.7829 31.085 31.7354 31.1298 31.6865C31.1707 31.6419 31.2097 31.5958 31.2496 31.5505C31.2936 31.5008 31.3384 31.4516 31.3813 31.401C31.4202 31.355 31.4572 31.3076 31.4952 31.2609C31.5371 31.2095 31.5798 31.1589 31.6204 31.1067C31.6578 31.0588 31.6931 31.0095 31.7295 30.9608C31.7687 30.9085 31.8089 30.8569 31.8469 30.8037C31.8824 30.754 31.9159 30.7029 31.9505 30.6526C31.9871 30.5991 32.0248 30.5463 32.0604 30.492C32.1045 30.4246 32.1449 30.3547 32.189 30.2873C32.2152 30.2473 32.2397 30.2064 32.2642 30.1654C32.3986 29.9406 32.6108 29.7694 32.8657 29.6901L32.8743 29.6874H32.8744L34.0938 29.3079L35.2646 28.9435C35.8705 28.7549 36.2817 28.2076 36.2817 27.5894V25.1993C36.2817 24.9882 36.2327 24.7857 36.1453 24.6025C36.13 24.5697 36.1133 24.5379 36.0955 24.5067Z" fill="#EBD2FD"/>
<path d="M24.4093 16.2495C24.485 15.9003 24.7336 15.6101 25.0675 15.4615C26.3505 14.891 29.6192 13.5181 30.4595 13.9457C31.5118 14.4812 30.9606 20.2625 29.3571 21.1449C27.8083 21.9973 23.314 21.2995 24.4093 16.2495Z" fill="#EBD2FD"/>
<path d="M29.2815 25.4601C28.3312 25.4601 27.558 24.7089 27.558 23.7856C27.558 23.5028 27.794 23.2736 28.0851 23.2736C28.3762 23.2736 28.6122 23.5028 28.6122 23.7856C28.6122 24.1442 28.9124 24.4358 29.2814 24.4358C29.6504 24.4358 29.9507 24.1442 29.9507 23.7856C29.9507 23.5028 30.1867 23.2736 30.4778 23.2736C30.7689 23.2736 31.0049 23.5028 31.0049 23.7856C31.005 24.7089 30.2318 25.4601 29.2815 25.4601Z" fill="#EBD2FD"/>
<path d="M21.5332 19.2194C21.4778 19.2194 21.4215 19.2109 21.366 19.1928C18.4914 18.2591 15.3251 18.2591 12.4504 19.1928C12.1744 19.2824 11.8757 19.1378 11.7834 18.8695C11.6911 18.6012 11.8401 18.3111 12.1162 18.2214C15.2065 17.2177 18.6101 17.2177 21.7004 18.2214C21.9765 18.3111 22.1255 18.6012 22.0332 18.8695C21.9594 19.0839 21.7537 19.2194 21.5332 19.2194Z" fill="#EBD2FD"/>
<path d="M30.0133 14.6157C29.2816 14.6157 27.5097 15.2016 25.3892 16.1447C25.2734 16.1962 25.1898 16.2933 25.1657 16.4045C24.8567 17.8293 25.022 18.9762 25.6438 19.7208C25.7165 19.8078 25.7963 19.8898 25.8822 19.9664C25.9822 20.0557 26.1434 20.0056 26.1767 19.8778C26.9136 17.042 30.4901 14.6157 30.0133 14.6157Z" fill="#F9F4FA"/>
<ellipse cx="16.9487" cy="11.4197" rx="6.6923" ry="6.7599" fill="#9D27B0"/>
<path d="M16.3044 7.78949C16.5397 7.22186 17.3578 7.22186 17.5931 7.78949L18.1778 9.20006C18.2776 9.44082 18.5078 9.60512 18.7717 9.62398L20.3178 9.73445C20.94 9.77891 21.1928 10.5433 20.7161 10.9386L19.5313 11.9208C19.3291 12.0885 19.2412 12.3543 19.3045 12.6068L19.6753 14.0856C19.8245 14.6807 19.1627 15.1531 18.6327 14.8298L17.3158 14.0263C17.091 13.8892 16.8065 13.8892 16.5817 14.0263L15.2647 14.8298C14.7348 15.1531 14.0729 14.6807 14.2222 14.0856L14.593 12.6068C14.6563 12.3543 14.5684 12.0885 14.3662 11.9208L13.1814 10.9386C12.7046 10.5433 12.9574 9.77891 13.5796 9.73445L15.1258 9.62398C15.3897 9.60512 15.6199 9.44082 15.7197 9.20006L16.3044 7.78949Z" fill="#FFDC00"/>
<path d="M16.9487 0.874146V3.03732M13.7364 1.41494V3.57811M20.161 1.41494V3.57811" stroke="#6A1B9A" stroke-width="1.48718" stroke-linecap="round"/>
</svg>
