<svg width="32" height="44" viewBox="0 0 32 44" fill="none" xmlns="http://www.w3.org/2000/svg">
    <path
        d="M7.14879 29.9188L5.43848 30.0031L2.12569 39.5286C2.10128 39.5983 2.09489 39.673 2.10711 39.7459C2.11933 39.8187 2.14976 39.8873 2.19557 39.9452C2.24139 40.0031 2.3011 40.0485 2.36916 40.0772C2.43722 40.1058 2.51141 40.1168 2.58486 40.1091L7.23304 39.6221C7.29711 39.6155 7.36186 39.6229 7.42271 39.6441C7.48357 39.6652 7.53904 39.6994 7.58522 39.7443L10.9258 43.0116C10.9785 43.0633 11.0434 43.1008 11.1145 43.1206C11.1855 43.1405 11.2605 43.1421 11.3323 43.1253C11.4042 43.1085 11.4706 43.0738 11.5255 43.0245C11.5803 42.9752 11.6219 42.9128 11.6462 42.8431L14.9842 33.2544L14.0002 32.2989L7.14879 29.9188Z"
        fill="#FF4755" />
    <path
        d="M14.9842 33.2542L15.6583 31.3164L6.11335 28.071L5.43933 30.0029C8.23373 31.9984 11.5528 33.129 14.9842 33.2542Z"
        fill="#FC2B3A" />
    <path
        d="M24.1677 29.9188L25.878 30.0031L29.1933 39.5295C29.2178 39.5992 29.2241 39.6739 29.2119 39.7467C29.1997 39.8195 29.1693 39.8881 29.1235 39.946C29.0776 40.0039 29.0179 40.0493 28.9499 40.078C28.8818 40.1067 28.8076 40.1177 28.7342 40.11L24.0835 39.6221C24.0194 39.6155 23.9546 39.6229 23.8938 39.6441C23.8329 39.6652 23.7775 39.6994 23.7313 39.7443L20.3907 43.0116C20.338 43.0633 20.2731 43.1008 20.2021 43.1206C20.131 43.1405 20.0561 43.1421 19.9842 43.1253C19.9124 43.1085 19.8459 43.0738 19.791 43.0245C19.7362 42.9752 19.6947 42.9128 19.6703 42.8431L16.3323 33.2544L17.3155 32.2989L24.1677 29.9188Z"
        fill="#FF4755" />
    <path
        d="M16.3322 33.2542L15.6582 31.3164L25.2031 28.071L25.8771 30.0029C23.0827 31.9984 19.7637 33.129 16.3322 33.2542Z"
        fill="#FC2B3A" />
    <path
        d="M15.6578 30.3408C-0.000485918 30.3408 0.00625463 15.1308 0.0188924 14.8688C0.430042 6.58767 7.27468 0 15.6578 0C24.0408 0 30.8855 6.58767 31.2966 14.8696C31.3093 15.1308 31.316 30.3408 15.6578 30.3408Z"
        fill="#F0F0F0" />
    <path
        d="M15.6582 29.7408C7.27516 29.7408 0.430528 23.1523 0.0193776 14.8712C0.00702064 15.1335 0.00056168 15.3966 0 15.6606C0 24.3057 7.01061 31.3163 15.6582 31.3163C24.3059 31.3163 31.3165 24.3057 31.3165 15.6581C31.3165 15.3935 31.31 15.1304 31.2971 14.8687C30.886 23.1498 24.0413 29.7408 15.6582 29.7408Z"
        fill="#D8D8D8" />
    <path
        d="M15.6583 26.9715C3.34735 26.9715 3.33135 14.8653 3.34735 14.605C3.54794 11.4763 4.93224 8.54134 7.21893 6.39656C9.50562 4.25178 12.5231 3.05811 15.6583 3.05811C18.7934 3.05811 21.8109 4.25178 24.0976 6.39656C26.3843 8.54134 27.7686 11.4763 27.9692 14.605C27.9852 14.8653 27.9692 26.9715 15.6583 26.9715Z"
        fill="#BEBEBE" />
    <path
        d="M15.6582 26.4156C12.524 26.4154 9.50742 25.2222 7.22116 23.0784C4.9349 20.9345 3.55043 18.0008 3.34899 14.873C3.33214 15.1342 3.32288 15.3971 3.32288 15.6625C3.32288 18.934 4.62249 22.0716 6.93581 24.3849C9.24914 26.6982 12.3867 27.9978 15.6582 27.9978C18.9298 27.9978 22.0673 26.6982 24.3806 24.3849C26.6939 22.0716 27.9936 18.934 27.9936 15.6625C27.9936 15.3971 27.9843 15.1342 27.9674 14.873C27.766 18.0008 26.3815 20.9345 24.0953 23.0784C21.809 25.2222 18.7924 26.4154 15.6582 26.4156Z"
        fill="#A4A4A4" />
    <path
        d="M19.7066 21.4232H12.7102C12.524 21.4232 12.3868 21.384 12.2986 21.3056C12.2202 21.2174 12.181 21.0803 12.181 20.8941V18.366C12.181 17.7976 12.2349 17.3322 12.3427 16.9696C12.4603 16.5973 12.622 16.2935 12.8277 16.0583C13.0335 15.8232 13.2785 15.637 13.5627 15.4998C13.8468 15.3626 14.1555 15.245 14.4887 15.147L16.4582 14.5297C16.615 14.4905 16.7179 14.4317 16.7669 14.3533C16.8257 14.2749 16.8551 14.1573 16.8551 14.0006C16.8551 13.8536 16.8257 13.7556 16.7669 13.7066C16.7081 13.6478 16.6052 13.6184 16.4582 13.6184H13.2687C13.0825 13.6184 12.9453 13.5792 12.8571 13.5008C12.7787 13.4126 12.7395 13.2754 12.7395 13.0893V11.3696C12.7395 11.1834 12.7787 11.0511 12.8571 10.9727C12.9453 10.8845 13.0825 10.8404 13.2687 10.8404H17.6047C18.4376 10.8404 19.0745 11.0511 19.5155 11.4724C19.9662 11.884 20.1916 12.4866 20.1916 13.2803V14.662C20.1916 15.3969 19.9858 15.9603 19.5743 16.3523C19.1627 16.7442 18.6042 17.048 17.8987 17.2636L15.8997 17.8956C15.7527 17.9348 15.6498 17.9789 15.591 18.0279C15.542 18.0769 15.5175 18.1798 15.5175 18.3366V18.6452H19.7066C19.8927 18.6452 20.025 18.6893 20.1034 18.7775C20.1916 18.8559 20.2357 18.9882 20.2357 19.1744V20.8941C20.2357 21.0803 20.1916 21.2174 20.1034 21.3056C20.025 21.384 19.8927 21.4232 19.7066 21.4232Z"
        fill="#D8D8D8" />
    <path
        d="M19.1135 21H12.1171C11.9309 21 11.7937 20.9608 11.7055 20.8824C11.6271 20.7942 11.5879 20.657 11.5879 20.4709V17.9427C11.5879 17.3744 11.6418 16.909 11.7496 16.5464C11.8672 16.174 12.0289 15.8703 12.2347 15.6351C12.4404 15.3999 12.6854 15.2138 12.9696 15.0766C13.2537 14.9394 13.5624 14.8218 13.8956 14.7238L15.8652 14.1065C16.0219 14.0673 16.1248 14.0085 16.1738 13.9301C16.2326 13.8517 16.262 13.7341 16.262 13.5773C16.262 13.4304 16.2326 13.3324 16.1738 13.2834C16.115 13.2246 16.0121 13.1952 15.8652 13.1952H12.6756C12.4894 13.1952 12.3522 13.156 12.2641 13.0776C12.1857 12.9894 12.1465 12.8522 12.1465 12.666V10.9463C12.1465 10.7602 12.1857 10.6279 12.2641 10.5495C12.3522 10.4613 12.4894 10.4172 12.6756 10.4172H17.0116C17.8445 10.4172 18.4815 10.6279 18.9224 11.0492C19.3732 11.4608 19.5985 12.0634 19.5985 12.8571V14.2388C19.5985 14.9737 19.3928 15.5371 18.9812 15.9291C18.5696 16.321 18.0111 16.6248 17.3056 16.8404L15.3066 17.4724C15.1596 17.5116 15.0567 17.5557 14.9979 17.6047C14.949 17.6537 14.9245 17.7566 14.9245 17.9133V18.222H19.1135C19.2997 18.222 19.4319 18.2661 19.5103 18.3543C19.5985 18.4327 19.6426 18.565 19.6426 18.7512V20.4709C19.6426 20.657 19.5985 20.7942 19.5103 20.8824C19.4319 20.9608 19.2997 21 19.1135 21Z"
        fill="#F0F0F0" />
</svg>
