<svg width="32" height="44" viewBox="0 0 32 44" fill="none" xmlns="http://www.w3.org/2000/svg">
    <path
        d="M7.14879 29.9188L5.43848 30.0031L2.12569 39.5286C2.10128 39.5983 2.09489 39.673 2.10711 39.7459C2.11933 39.8187 2.14976 39.8873 2.19557 39.9452C2.24139 40.0031 2.3011 40.0485 2.36916 40.0772C2.43722 40.1058 2.51141 40.1168 2.58486 40.1091L7.23304 39.6221C7.29711 39.6155 7.36186 39.6229 7.42271 39.6441C7.48357 39.6652 7.53904 39.6994 7.58522 39.7443L10.9258 43.0116C10.9785 43.0633 11.0434 43.1008 11.1145 43.1206C11.1855 43.1405 11.2605 43.1421 11.3323 43.1253C11.4042 43.1085 11.4706 43.0738 11.5255 43.0245C11.5803 42.9752 11.6219 42.9128 11.6462 42.8431L14.9842 33.2544L14.0002 32.2989L7.14879 29.9188Z"
        fill="#FF4755" />
    <path
        d="M14.9842 33.2542L15.6583 31.3164L6.11335 28.071L5.43933 30.0029C8.23373 31.9984 11.5528 33.129 14.9842 33.2542Z"
        fill="#FC2B3A" />
    <path
        d="M24.1677 29.9188L25.878 30.0031L29.1933 39.5295C29.2177 39.5992 29.2241 39.6739 29.2119 39.7467C29.1996 39.8195 29.1692 39.8881 29.1234 39.946C29.0776 40.0039 29.0179 40.0493 28.9498 40.078C28.8818 40.1067 28.8076 40.1177 28.7341 40.11L24.0834 39.6221C24.0193 39.6155 23.9546 39.6229 23.8937 39.6441C23.8329 39.6652 23.7774 39.6994 23.7312 39.7443L20.3906 43.0116C20.3379 43.0633 20.2731 43.1008 20.202 43.1206C20.1309 43.1405 20.056 43.1421 19.9841 43.1253C19.9123 43.1085 19.8458 43.0738 19.791 43.0245C19.7361 42.9752 19.6946 42.9128 19.6703 42.8431L16.3322 33.2544L17.3154 32.2989L24.1677 29.9188Z"
        fill="#FF4755" />
    <path
        d="M16.3322 33.2542L15.6582 31.3164L25.2031 28.071L25.8771 30.0029C23.0827 31.9984 19.7637 33.129 16.3322 33.2542Z"
        fill="#FC2B3A" />
    <path
        d="M15.6578 30.3408C-0.000485918 30.3408 0.00625463 15.1308 0.0188924 14.8688C0.430042 6.58767 7.27468 0 15.6578 0C24.0408 0 30.8855 6.58767 31.2966 14.8696C31.3093 15.1308 31.316 30.3408 15.6578 30.3408Z"
        fill="#F79F24" />
    <path
        d="M15.6582 29.7408C7.27516 29.7408 0.430528 23.1523 0.0193776 14.8712C0.00702064 15.1335 0.00056168 15.3966 0 15.6606C0 24.3057 7.01061 31.3163 15.6582 31.3163C24.3059 31.3163 31.3165 24.3057 31.3165 15.6581C31.3165 15.3935 31.31 15.1304 31.2971 14.8687C30.886 23.1498 24.0413 29.7408 15.6582 29.7408Z"
        fill="#F18F08" />
    <path
        d="M15.6582 26.9715C3.34729 26.9715 3.33128 14.8653 3.34729 14.605C3.54788 11.4763 4.93218 8.54134 7.21887 6.39656C9.50556 4.25178 12.5231 3.05811 15.6582 3.05811C18.7933 3.05811 21.8108 4.25178 24.0975 6.39656C26.3842 8.54134 27.7685 11.4763 27.9691 14.605C27.9851 14.8653 27.9691 26.9715 15.6582 26.9715Z"
        fill="#CF7A06" />
    <path
        d="M15.6582 26.4156C12.524 26.4154 9.50742 25.2222 7.22116 23.0784C4.9349 20.9345 3.55043 18.0008 3.34899 14.873C3.33214 15.1342 3.32288 15.3971 3.32288 15.6625C3.32288 18.934 4.62249 22.0716 6.93581 24.3849C9.24914 26.6982 12.3867 27.9978 15.6582 27.9978C18.9298 27.9978 22.0673 26.6982 24.3806 24.3849C26.6939 22.0716 27.9936 18.934 27.9936 15.6625C27.9936 15.3971 27.9843 15.1342 27.9674 14.873C27.766 18.0008 26.3815 20.9345 24.0953 23.0784C21.809 25.2222 18.7924 26.4154 15.6582 26.4156Z"
        fill="#AC6606" />
    <path
        d="M12.9072 18.6494H16.7276C16.9711 18.6494 17.1284 18.6038 17.1994 18.5124C17.2704 18.4211 17.3059 18.3146 17.3059 18.1928V17.7818C17.3059 17.6601 17.2704 17.5586 17.1994 17.4774C17.1284 17.3861 16.9711 17.3404 16.7276 17.3404H14.14C13.9472 17.3404 13.8052 17.2998 13.7139 17.2187C13.6327 17.1273 13.5921 16.9853 13.5921 16.7925V15.1639C13.5921 14.9711 13.6327 14.8341 13.7139 14.7529C13.8052 14.6616 13.9472 14.6159 14.14 14.6159H15.7382C15.9817 14.6159 16.139 14.5703 16.2101 14.4789C16.2811 14.3876 16.3166 14.2811 16.3166 14.1593V13.931C16.3166 13.8092 16.2811 13.7027 16.2101 13.6114C16.139 13.52 15.9817 13.4744 15.7382 13.4744H12.9072C12.7144 13.4744 12.5723 13.4338 12.481 13.3526C12.3998 13.2613 12.3592 13.1192 12.3592 12.9264V11.1152C12.3592 10.9224 12.3998 10.7854 12.481 10.7042C12.5723 10.6129 12.7144 10.5672 12.9072 10.5672H17.1537C17.9959 10.5672 18.62 10.7651 19.0259 11.1608C19.4419 11.5464 19.6499 12.0741 19.6499 12.7438V13.6266C19.6499 14.0122 19.584 14.347 19.4521 14.6312C19.3201 14.9153 19.0868 15.1284 18.7519 15.2704C19.4724 15.3516 19.9696 15.5748 20.2435 15.9401C20.5277 16.2953 20.6697 16.8077 20.6697 17.4774V18.9995C20.6697 19.7808 20.4211 20.3998 19.9239 20.8564C19.4267 21.3029 18.691 21.5261 17.7169 21.5261H12.9072C12.7144 21.5261 12.5723 21.4855 12.481 21.4044C12.3998 21.313 12.3592 21.171 12.3592 20.9782V19.1974C12.3592 19.0046 12.3998 18.8676 12.481 18.7864C12.5723 18.6951 12.7144 18.6494 12.9072 18.6494Z"
        fill="#F18F08" />
    <path
        d="M12.2938 18.1233H16.1142C16.3577 18.1233 16.515 18.0776 16.586 17.9863C16.657 17.895 16.6925 17.7884 16.6925 17.6667V17.2557C16.6925 17.1339 16.657 17.0325 16.586 16.9513C16.515 16.86 16.3577 16.8143 16.1142 16.8143H13.5266C13.3338 16.8143 13.1918 16.7737 13.1005 16.6925C13.0193 16.6012 12.9787 16.4592 12.9787 16.2664V14.6378C12.9787 14.445 13.0193 14.308 13.1005 14.2268C13.1918 14.1355 13.3338 14.0898 13.5266 14.0898H15.1248C15.3683 14.0898 15.5256 14.0441 15.5966 13.9528C15.6677 13.8615 15.7032 13.755 15.7032 13.6332V13.4049C15.7032 13.2831 15.6677 13.1766 15.5966 13.0852C15.5256 12.9939 15.3683 12.9483 15.1248 12.9483H12.2938C12.101 12.9483 11.9589 12.9077 11.8676 12.8265C11.7864 12.7352 11.7458 12.5931 11.7458 12.4003V10.5891C11.7458 10.3963 11.7864 10.2593 11.8676 10.1781C11.9589 10.0868 12.101 10.0411 12.2938 10.0411H16.5403C17.3825 10.0411 18.0066 10.239 18.4125 10.6347C18.8285 11.0203 19.0365 11.548 19.0365 12.2177V13.1005C19.0365 13.4861 18.9706 13.8209 18.8387 14.105C18.7067 14.3891 18.4734 14.6022 18.1385 14.7443C18.8589 14.8255 19.3562 15.0487 19.6301 15.414C19.9142 15.7692 20.0563 16.2816 20.0563 16.9513V18.4734C20.0563 19.2547 19.8077 19.8737 19.3105 20.3303C18.8133 20.7768 18.0776 21 17.1035 21H12.2938C12.101 21 11.9589 20.9594 11.8676 20.8782C11.7864 20.7869 11.7458 20.6449 11.7458 20.4521V18.6712C11.7458 18.4784 11.7864 18.3415 11.8676 18.2603C11.9589 18.169 12.101 18.1233 12.2938 18.1233Z"
        fill="#F79F24" />
</svg>
