<svg width="42" height="42" viewBox="0 0 42 42" fill="none" xmlns="http://www.w3.org/2000/svg">
    <path
        d="M21 40.25C31.6315 40.25 40.25 31.6315 40.25 21C40.25 10.3685 31.6315 1.75 21 1.75C10.3685 1.75 1.75 10.3685 1.75 21C1.75 31.6315 10.3685 40.25 21 40.25Z"
        fill="#B571F7" />
    <path
        d="M21 40.25C31.6315 40.25 40.25 31.6315 40.25 21C40.25 10.3685 31.6315 1.75 21 1.75C10.3685 1.75 1.75 10.3685 1.75 21C1.75 31.6315 10.3685 40.25 21 40.25Z"
        stroke="#005F99" />
    <path d="M21 9.33337L21 21.5834L28 28.5834" stroke="white" stroke-width="4.66667"
        stroke-linecap="round" />
</svg>
